<svg xmlns="http://www.w3.org/2000/svg" xmlns:xlink="http://www.w3.org/1999/xlink" width="2000" zoomAndPan="magnify" viewBox="0 0 1500 1499.999933" height="2000" preserveAspectRatio="xMidYMid meet" version="1.0"><defs><clipPath id="8c0a0e9c32"><path d="M 16.484375 78.832031 L 1308.476562 78.832031 L 1308.476562 1370.824219 L 16.484375 1370.824219 Z M 16.484375 78.832031 " clip-rule="nonzero"/></clipPath><clipPath id="e92510165a"><path d="M 662.480469 78.832031 C 305.703125 78.832031 16.484375 368.050781 16.484375 724.828125 C 16.484375 1081.601562 305.703125 1370.824219 662.480469 1370.824219 C 1019.253906 1370.824219 1308.476562 1081.601562 1308.476562 724.828125 C 1308.476562 368.050781 1019.253906 78.832031 662.480469 78.832031 Z M 662.480469 78.832031 " clip-rule="nonzero"/></clipPath><clipPath id="46de42aeda"><path d="M 662.480469 78.832031 C 305.703125 78.832031 16.484375 368.050781 16.484375 724.828125 C 16.484375 1081.601562 305.703125 1370.824219 662.480469 1370.824219 C 1019.253906 1370.824219 1308.476562 1081.601562 1308.476562 724.828125 C 1308.476562 368.050781 1019.253906 78.832031 662.480469 78.832031 Z M 662.480469 78.832031 " clip-rule="nonzero"/></clipPath><clipPath id="7130c3be6e"><path d="M 16.484375 78.832031 L 1308.359375 78.832031 L 1308.359375 1370.703125 L 16.484375 1370.703125 Z M 16.484375 78.832031 " clip-rule="nonzero"/></clipPath><clipPath id="7869b85a64"><path d="M 662.480469 78.832031 C 305.703125 78.832031 16.484375 368.050781 16.484375 724.828125 C 16.484375 1081.601562 305.703125 1370.820312 662.480469 1370.820312 C 1019.253906 1370.820312 1308.476562 1081.601562 1308.476562 724.828125 C 1308.476562 368.050781 1019.253906 78.832031 662.480469 78.832031 Z M 662.480469 78.832031 " clip-rule="nonzero"/></clipPath><clipPath id="ba15bf187d"><path d="M 13.804688 73.335938 L 1313.953125 73.335938 L 1313.953125 1373.484375 L 13.804688 1373.484375 Z M 13.804688 73.335938 " clip-rule="nonzero"/></clipPath><clipPath id="23b328af76"><path d="M 663.882812 73.335938 C 304.851562 73.335938 13.804688 364.382812 13.804688 723.414062 C 13.804688 1082.441406 304.851562 1373.484375 663.882812 1373.484375 C 1022.910156 1373.484375 1313.953125 1082.441406 1313.953125 723.414062 C 1313.953125 364.382812 1022.910156 73.335938 663.882812 73.335938 Z M 663.882812 73.335938 " clip-rule="nonzero"/></clipPath><clipPath id="284a3aec12"><path d="M 202 268.125 L 1111.25 268.125 L 1111.25 1178 L 202 1178 Z M 202 268.125 " clip-rule="nonzero"/></clipPath><clipPath id="d86c8101b3"><path d="M 125.078125 362.515625 L 1017.242188 191.414062 L 1188.339844 1083.578125 L 296.175781 1254.675781 Z M 125.078125 362.515625 " clip-rule="nonzero"/></clipPath><clipPath id="2da19b8507"><path d="M 571.15625 276.960938 C 324.792969 324.214844 163.378906 562.230469 210.625 808.597656 C 257.875 1054.960938 495.894531 1216.375 742.261719 1169.128906 C 988.621094 1121.878906 1150.039062 883.863281 1102.792969 637.496094 C 1055.542969 391.132812 817.523438 229.714844 571.15625 276.960938 Z M 571.15625 276.960938 " clip-rule="nonzero"/></clipPath><clipPath id="ae1ba56d6d"><path d="M 125.078125 362.515625 L 1017.242188 191.414062 L 1188.339844 1083.578125 L 296.175781 1254.675781 Z M 125.078125 362.515625 " clip-rule="nonzero"/></clipPath><clipPath id="c525506989"><path d="M 571.15625 276.960938 C 324.792969 324.214844 163.378906 562.230469 210.625 808.597656 C 257.875 1054.960938 495.894531 1216.375 742.261719 1169.128906 C 988.621094 1121.878906 1150.039062 883.863281 1102.792969 637.496094 C 1055.542969 391.132812 817.523438 229.714844 571.15625 276.960938 Z M 571.15625 276.960938 " clip-rule="nonzero"/></clipPath><clipPath id="04d5878c5c"><path d="M 202 268.125 L 1111.25 268.125 L 1111.25 1178 L 202 1178 Z M 202 268.125 " clip-rule="nonzero"/></clipPath><clipPath id="1ca34ce7ec"><path d="M 125.078125 362.515625 L 1017.253906 191.410156 L 1188.359375 1083.589844 L 296.175781 1254.691406 Z M 125.078125 362.515625 " clip-rule="nonzero"/></clipPath><clipPath id="8b44d8de3b"><path d="M 125.078125 362.515625 L 1017.242188 191.414062 L 1188.339844 1083.578125 L 296.175781 1254.675781 Z M 125.078125 362.515625 " clip-rule="nonzero"/></clipPath><clipPath id="5c37d835a2"><path d="M 571.15625 276.960938 C 324.792969 324.214844 163.378906 562.230469 210.625 808.59375 C 257.875 1054.960938 495.894531 1216.375 742.261719 1169.125 C 988.621094 1121.878906 1150.039062 883.863281 1102.792969 637.496094 C 1055.542969 391.132812 817.523438 229.714844 571.15625 276.960938 Z M 571.15625 276.960938 " clip-rule="nonzero"/></clipPath><clipPath id="b1987d7406"><path d="M 321.25 535 L 629 535 L 629 915 L 321.25 915 Z M 321.25 535 " clip-rule="nonzero"/></clipPath><clipPath id="a539f7e196"><path d="M 351.949219 514.3125 L 654.039062 558.636719 L 598.628906 936.253906 L 296.539062 891.921875 Z M 351.949219 514.3125 " clip-rule="nonzero"/></clipPath><clipPath id="f27d47aa28"><path d="M 502.992188 536.472656 C 419.574219 524.234375 339.574219 598.636719 324.3125 702.664062 C 309.042969 806.6875 364.296875 900.941406 447.714844 913.183594 C 531.136719 925.425781 611.136719 851.015625 626.402344 746.992188 C 641.664062 642.96875 586.414062 548.714844 502.992188 536.472656 Z M 502.992188 536.472656 " clip-rule="nonzero"/></clipPath><clipPath id="ce29639843"><path d="M 351.949219 514.3125 L 654.039062 558.636719 L 598.628906 936.253906 L 296.539062 891.921875 Z M 351.949219 514.3125 " clip-rule="nonzero"/></clipPath><clipPath id="9bf887457d"><path d="M 502.992188 536.472656 C 419.574219 524.234375 339.574219 598.636719 324.3125 702.664062 C 309.042969 806.6875 364.296875 900.941406 447.714844 913.183594 C 531.136719 925.425781 611.136719 851.015625 626.402344 746.992188 C 641.664062 642.96875 586.414062 548.714844 502.992188 536.472656 Z M 502.992188 536.472656 " clip-rule="nonzero"/></clipPath><clipPath id="65198ff4a6"><path d="M 321.25 535 L 629 535 L 629 915 L 321.25 915 Z M 321.25 535 " clip-rule="nonzero"/></clipPath><clipPath id="e83609749f"><path d="M 351.949219 514.3125 L 654.335938 558.679688 L 599.070312 935.273438 L 296.6875 890.902344 Z M 351.949219 514.3125 " clip-rule="nonzero"/></clipPath><clipPath id="80b834a8c4"><path d="M 351.949219 514.3125 L 654.027344 558.636719 L 598.621094 936.238281 L 296.539062 891.914062 Z M 351.949219 514.3125 " clip-rule="nonzero"/></clipPath><clipPath id="a4b7f28dc7"><path d="M 502.988281 536.472656 C 419.570312 524.234375 339.574219 598.636719 324.3125 702.65625 C 309.046875 806.679688 364.296875 900.925781 447.714844 913.167969 C 531.132812 925.410156 611.128906 851.003906 626.390625 746.980469 C 641.65625 642.964844 586.40625 548.714844 502.988281 536.472656 Z M 502.988281 536.472656 " clip-rule="nonzero"/></clipPath><clipPath id="77443302e9"><path d="M 676.25 533.125 L 986 533.125 L 986 911.875 L 676.25 911.875 Z M 676.25 533.125 " clip-rule="nonzero"/></clipPath><clipPath id="c40c0b7421"><path d="M 646.660156 562.585938 L 947.03125 507.800781 L 1015.511719 883.265625 L 715.140625 938.050781 Z M 646.660156 562.585938 " clip-rule="nonzero"/></clipPath><clipPath id="c699074e58"><path d="M 796.84375 535.195312 C 713.902344 550.320312 661.953125 646.433594 680.820312 749.867188 C 699.6875 853.300781 782.222656 924.886719 865.164062 909.753906 C 948.109375 894.628906 1000.058594 798.515625 981.191406 695.082031 C 962.324219 591.648438 879.789062 520.066406 796.84375 535.195312 Z M 796.84375 535.195312 " clip-rule="nonzero"/></clipPath><clipPath id="905f14faf2"><path d="M 646.660156 562.585938 L 947.03125 507.800781 L 1015.511719 883.265625 L 715.140625 938.050781 Z M 646.660156 562.585938 " clip-rule="nonzero"/></clipPath><clipPath id="59c081d86e"><path d="M 796.84375 535.195312 C 713.902344 550.320312 661.953125 646.433594 680.820312 749.867188 C 699.6875 853.300781 782.222656 924.886719 865.164062 909.753906 C 948.109375 894.628906 1000.058594 798.515625 981.191406 695.082031 C 962.324219 591.648438 879.789062 520.066406 796.84375 535.195312 Z M 796.84375 535.195312 " clip-rule="nonzero"/></clipPath><clipPath id="da04eb0d6b"><path d="M 676.25 533.125 L 986 533.125 L 986 911.875 L 676.25 911.875 Z M 676.25 533.125 " clip-rule="nonzero"/></clipPath><clipPath id="bb89f23ef5"><path d="M 646.660156 562.585938 L 947.324219 507.75 L 1015.625 882.195312 L 714.957031 937.035156 Z M 646.660156 562.585938 " clip-rule="nonzero"/></clipPath><clipPath id="52ca26807d"><path d="M 646.660156 562.585938 L 947.019531 507.800781 L 1015.503906 883.257812 L 715.140625 938.042969 Z M 646.660156 562.585938 " clip-rule="nonzero"/></clipPath><clipPath id="ce067a031b"><path d="M 796.839844 535.195312 C 713.902344 550.328125 661.953125 646.433594 680.820312 749.863281 C 699.683594 853.289062 782.214844 924.871094 865.15625 909.746094 C 948.101562 894.617188 1000.042969 798.503906 981.179688 695.078125 C 962.3125 591.648438 879.785156 520.066406 796.839844 535.195312 Z M 796.839844 535.195312 " clip-rule="nonzero"/></clipPath><clipPath id="4ec707f33a"><path d="M 344.398438 1003.277344 L 554.101562 1003.277344 L 554.101562 1224.375 L 344.398438 1224.375 Z M 344.398438 1003.277344 " clip-rule="nonzero"/></clipPath><clipPath id="12a15a8e38"><path d="M 463.71875 1282.554688 L 254.167969 1166.070312 L 344.53125 1003.503906 L 554.085938 1119.988281 Z M 463.71875 1282.554688 " clip-rule="nonzero"/></clipPath><clipPath id="ab6f3907f8"><path d="M 358.972656 1224.332031 L 344.59375 1003.539062 L 554.085938 1119.988281 Z M 358.972656 1224.332031 " clip-rule="nonzero"/></clipPath><clipPath id="e641543ca6"><path d="M 463.71875 1282.554688 L 254.167969 1166.070312 L 344.53125 1003.503906 L 554.085938 1119.988281 Z M 463.71875 1282.554688 " clip-rule="nonzero"/></clipPath><clipPath id="3ce65c1715"><path d="M 358.972656 1224.332031 L 344.59375 1003.539062 L 554.085938 1119.988281 Z M 358.972656 1224.332031 " clip-rule="nonzero"/></clipPath><clipPath id="f5de5a8a9b"><path d="M 344 1003.125 L 554 1003.125 L 554 1224.375 L 344 1224.375 Z M 344 1003.125 " clip-rule="nonzero"/></clipPath><clipPath id="b4161bd75f"><path d="M 463.71875 1282.554688 L 253.949219 1165.953125 L 344.136719 1003.707031 L 553.90625 1120.3125 Z M 463.71875 1282.554688 " clip-rule="nonzero"/></clipPath><clipPath id="a8bce823ff"><path d="M 463.714844 1282.546875 L 254.238281 1166.109375 L 345.210938 1002.457031 L 554.6875 1118.894531 Z M 463.714844 1282.546875 " clip-rule="nonzero"/></clipPath><clipPath id="4535a67140"><path d="M 358.980469 1224.332031 L 344.59375 1003.558594 L 554.070312 1120 Z M 358.980469 1224.332031 " clip-rule="nonzero"/></clipPath><clipPath id="14a7ae3f69"><path d="M 1114 1083.125 L 1328 1083.125 L 1328 1270 L 1114 1270 Z M 1114 1083.125 " clip-rule="nonzero"/></clipPath><clipPath id="b5989a9d58"><path d="M 1158.792969 1058.085938 L 1352.839844 1203.617188 L 1283.460938 1296.121094 L 1089.417969 1150.589844 Z M 1158.792969 1058.085938 " clip-rule="nonzero"/></clipPath><clipPath id="1f72bba080"><path d="M 1295.984375 1160.976562 C 1327.191406 1184.378906 1336.960938 1224.0625 1317.800781 1249.609375 C 1298.648438 1275.152344 1257.816406 1276.890625 1226.605469 1253.480469 L 1145.925781 1192.972656 C 1114.714844 1169.566406 1104.945312 1129.882812 1124.105469 1104.339844 C 1143.265625 1078.792969 1184.097656 1077.058594 1215.300781 1100.46875 Z M 1295.984375 1160.976562 " clip-rule="nonzero"/></clipPath><clipPath id="b1ea0876fe"><path d="M 1158.792969 1058.085938 L 1352.839844 1203.617188 L 1283.460938 1296.121094 L 1089.417969 1150.589844 Z M 1158.792969 1058.085938 " clip-rule="nonzero"/></clipPath><clipPath id="2c93fde0fe"><path d="M 1295.984375 1160.976562 C 1327.191406 1184.378906 1336.960938 1224.0625 1317.800781 1249.609375 C 1298.648438 1275.152344 1257.816406 1276.890625 1226.605469 1253.480469 L 1145.925781 1192.972656 C 1114.714844 1169.566406 1104.945312 1129.882812 1124.105469 1104.339844 C 1143.265625 1078.792969 1184.097656 1077.058594 1215.300781 1100.46875 Z M 1295.984375 1160.976562 " clip-rule="nonzero"/></clipPath><clipPath id="e7ddb59ed6"><path d="M 1247.5 1220 L 1406 1220 L 1406 1331.875 L 1247.5 1331.875 Z M 1247.5 1220 " clip-rule="nonzero"/></clipPath><clipPath id="d6a3f9de45"><path d="M 1268.804688 1200.21875 L 1421.6875 1283.75 L 1384.566406 1351.699219 L 1231.679688 1268.167969 Z M 1268.804688 1200.21875 " clip-rule="nonzero"/></clipPath><clipPath id="6f122e9bc5"><path d="M 1359.496094 1249.769531 C 1393.730469 1268.476562 1413.171875 1298.847656 1402.917969 1317.613281 C 1392.671875 1336.375 1356.605469 1336.425781 1322.371094 1317.71875 L 1293.660156 1302.035156 C 1259.429688 1283.328125 1239.988281 1252.957031 1250.238281 1234.195312 C 1260.492188 1215.429688 1296.550781 1215.378906 1330.785156 1234.085938 Z M 1359.496094 1249.769531 " clip-rule="nonzero"/></clipPath><clipPath id="255504acc6"><path d="M 1268.804688 1200.21875 L 1421.6875 1283.75 L 1384.566406 1351.699219 L 1231.679688 1268.167969 Z M 1268.804688 1200.21875 " clip-rule="nonzero"/></clipPath><clipPath id="31da96331e"><path d="M 1359.496094 1249.769531 C 1393.730469 1268.476562 1413.171875 1298.847656 1402.917969 1317.613281 C 1392.671875 1336.375 1356.605469 1336.425781 1322.371094 1317.71875 L 1293.660156 1302.035156 C 1259.429688 1283.328125 1239.988281 1252.957031 1250.238281 1234.195312 C 1260.492188 1215.429688 1296.550781 1215.378906 1330.785156 1234.085938 Z M 1359.496094 1249.769531 " clip-rule="nonzero"/></clipPath><clipPath id="bd714087be"><path d="M 391 918.074219 L 600.601562 918.074219 L 600.601562 1159.871094 L 391 1159.871094 Z M 391 918.074219 " clip-rule="nonzero"/></clipPath><clipPath id="00ef29bdb1"><path d="M 498.691406 1217.851562 L 288.890625 1101.230469 L 390.785156 917.925781 L 600.585938 1034.546875 Z M 498.691406 1217.851562 " clip-rule="nonzero"/></clipPath><clipPath id="a3dbe55233"><path d="M 393.945312 1159.625 L 391.09375 918.09375 L 600.585938 1034.546875 Z M 393.945312 1159.625 " clip-rule="nonzero"/></clipPath><clipPath id="3389c91e3b"><path d="M 498.691406 1217.851562 L 288.890625 1101.230469 L 390.785156 917.925781 L 600.585938 1034.546875 Z M 498.691406 1217.851562 " clip-rule="nonzero"/></clipPath><clipPath id="c970f9a9de"><path d="M 393.945312 1159.625 L 391.09375 918.09375 L 600.585938 1034.546875 Z M 393.945312 1159.625 " clip-rule="nonzero"/></clipPath><clipPath id="258c3a9ff2"><path d="M 1052.5 1150.625 L 1162.5 1150.625 L 1162.5 1228 L 1052.5 1228 Z M 1052.5 1150.625 " clip-rule="nonzero"/></clipPath><clipPath id="efb6096b54"><path d="M 1065.117188 1141.527344 L 1170.550781 1199.136719 L 1150.183594 1236.414062 L 1044.746094 1178.8125 Z M 1065.117188 1141.527344 " clip-rule="nonzero"/></clipPath><clipPath id="5d4bfd1829"><path d="M 1144.761719 1185.042969 C 1159.003906 1192.828125 1165.992188 1207.480469 1160.367188 1217.773438 C 1154.742188 1228.070312 1138.632812 1230.105469 1124.390625 1222.324219 L 1070.535156 1192.90625 C 1056.292969 1185.121094 1049.304688 1170.464844 1054.929688 1160.171875 C 1060.554688 1149.878906 1076.664062 1147.835938 1090.90625 1155.621094 Z M 1144.761719 1185.042969 " clip-rule="nonzero"/></clipPath><clipPath id="de4a7a199e"><path d="M 1065.117188 1141.527344 L 1170.550781 1199.136719 L 1150.183594 1236.414062 L 1044.746094 1178.8125 Z M 1065.117188 1141.527344 " clip-rule="nonzero"/></clipPath><clipPath id="de1cc3c0eb"><path d="M 1144.761719 1185.042969 C 1159.003906 1192.828125 1165.992188 1207.480469 1160.367188 1217.773438 C 1154.742188 1228.070312 1138.632812 1230.105469 1124.390625 1222.324219 L 1070.535156 1192.90625 C 1056.292969 1185.121094 1049.304688 1170.464844 1054.929688 1160.171875 C 1060.554688 1149.878906 1076.664062 1147.835938 1090.90625 1155.621094 Z M 1144.761719 1185.042969 " clip-rule="nonzero"/></clipPath><clipPath id="14232684ff"><path d="M 1039 1071.875 L 1200 1071.875 L 1200 1180.625 L 1039 1180.625 Z M 1039 1071.875 " clip-rule="nonzero"/></clipPath><clipPath id="488b457bd1"><path d="M 1059.277344 1052.613281 L 1215.046875 1130.625 L 1180.375 1199.859375 L 1024.605469 1121.84375 Z M 1059.277344 1052.613281 " clip-rule="nonzero"/></clipPath><clipPath id="378ab2a32f"><path d="M 1151.683594 1098.890625 C 1186.566406 1116.363281 1207.078125 1146.019531 1197.503906 1165.136719 C 1187.929688 1184.257812 1151.894531 1185.589844 1117.011719 1168.125 L 1087.761719 1153.476562 C 1052.878906 1136.003906 1032.367188 1106.347656 1041.941406 1087.226562 C 1051.519531 1068.109375 1087.554688 1066.773438 1122.4375 1084.242188 Z M 1151.683594 1098.890625 " clip-rule="nonzero"/></clipPath><clipPath id="df3808a72f"><path d="M 1059.277344 1052.613281 L 1215.046875 1130.625 L 1180.375 1199.859375 L 1024.605469 1121.84375 Z M 1059.277344 1052.613281 " clip-rule="nonzero"/></clipPath><clipPath id="88a0ceadab"><path d="M 1151.683594 1098.890625 C 1186.566406 1116.363281 1207.078125 1146.019531 1197.503906 1165.136719 C 1187.929688 1184.257812 1151.894531 1185.589844 1117.011719 1168.125 L 1087.761719 1153.476562 C 1052.878906 1136.003906 1032.367188 1106.347656 1041.941406 1087.226562 C 1051.519531 1068.109375 1087.554688 1066.773438 1122.4375 1084.242188 Z M 1151.683594 1098.890625 " clip-rule="nonzero"/></clipPath><clipPath id="79c5a24bff"><path d="M 1107.5 1013.125 L 1206 1013.125 L 1206 1144 L 1107.5 1144 Z M 1107.5 1013.125 " clip-rule="nonzero"/></clipPath><clipPath id="cdfdc52256"><path d="M 1141.121094 1002.742188 L 1218.0625 1126.707031 L 1172.203125 1155.171875 L 1095.261719 1031.210938 Z M 1141.121094 1002.742188 " clip-rule="nonzero"/></clipPath><clipPath id="fbdac8c6c4"><path d="M 1198.328125 1094.917969 C 1209.203125 1112.4375 1207.753906 1133.011719 1195.09375 1140.875 C 1182.425781 1148.734375 1163.34375 1140.902344 1152.46875 1123.378906 L 1114.957031 1062.933594 C 1104.082031 1045.410156 1105.53125 1024.839844 1118.191406 1016.976562 C 1130.859375 1009.117188 1149.941406 1016.949219 1160.816406 1034.472656 Z M 1198.328125 1094.917969 " clip-rule="nonzero"/></clipPath><clipPath id="0d0c4be6ce"><path d="M 1141.121094 1002.742188 L 1218.0625 1126.707031 L 1172.203125 1155.171875 L 1095.261719 1031.210938 Z M 1141.121094 1002.742188 " clip-rule="nonzero"/></clipPath><clipPath id="b8f0243772"><path d="M 1198.328125 1094.917969 C 1209.203125 1112.4375 1207.753906 1133.011719 1195.09375 1140.875 C 1182.425781 1148.734375 1163.34375 1140.902344 1152.46875 1123.378906 L 1114.957031 1062.933594 C 1104.082031 1045.410156 1105.53125 1024.839844 1118.191406 1016.976562 C 1130.859375 1009.117188 1149.941406 1016.949219 1160.816406 1034.472656 Z M 1198.328125 1094.917969 " clip-rule="nonzero"/></clipPath><clipPath id="aaed1604bc"><path d="M 1102.5 957 L 1198.75 957 L 1198.75 1090 L 1102.5 1090 Z M 1102.5 957 " clip-rule="nonzero"/></clipPath><clipPath id="390b4c430f"><path d="M 1090.835938 1073.367188 L 1163.695312 946.96875 L 1210.453125 973.921875 L 1137.59375 1100.320312 Z M 1090.835938 1073.367188 " clip-rule="nonzero"/></clipPath><clipPath id="8fb3766956"><path d="M 1145.007812 979.382812 C 1155.308594 961.519531 1174.121094 953.070312 1187.035156 960.511719 C 1199.945312 967.953125 1202.070312 988.472656 1191.765625 1006.335938 L 1156.238281 1067.972656 C 1145.941406 1085.839844 1127.128906 1094.292969 1114.214844 1086.84375 C 1101.296875 1079.402344 1099.179688 1058.886719 1109.476562 1041.019531 Z M 1145.007812 979.382812 " clip-rule="nonzero"/></clipPath><clipPath id="f2938eec93"><path d="M 1090.835938 1073.367188 L 1163.695312 946.96875 L 1210.453125 973.921875 L 1137.59375 1100.320312 Z M 1090.835938 1073.367188 " clip-rule="nonzero"/></clipPath><clipPath id="f613ef6801"><path d="M 1145.007812 979.382812 C 1155.308594 961.519531 1174.121094 953.070312 1187.035156 960.511719 C 1199.945312 967.953125 1202.070312 988.472656 1191.765625 1006.335938 L 1156.238281 1067.972656 C 1145.941406 1085.839844 1127.128906 1094.292969 1114.214844 1086.84375 C 1101.296875 1079.402344 1099.179688 1058.886719 1109.476562 1041.019531 Z M 1145.007812 979.382812 " clip-rule="nonzero"/></clipPath><clipPath id="ae2d6c4440"><path d="M 1402.5 1300 L 1488 1300 L 1488 1363.125 L 1402.5 1363.125 Z M 1402.5 1300 " clip-rule="nonzero"/></clipPath><clipPath id="b1f3d7db84"><path d="M 1398.164062 1355.652344 L 1412.515625 1295.855469 L 1494.734375 1315.589844 L 1480.386719 1375.386719 Z M 1398.164062 1355.652344 " clip-rule="nonzero"/></clipPath><clipPath id="76ad774e94"><path d="M 1419.46875 1360.765625 C 1433.425781 1364.117188 1448.023438 1363.792969 1461.820312 1359.824219 L 1478.183594 1355.121094 C 1482.78125 1353.796875 1486.3125 1350.105469 1487.429688 1345.457031 C 1488.542969 1340.804688 1487.074219 1335.914062 1483.578125 1332.652344 L 1471.132812 1321.03125 C 1460.632812 1311.230469 1447.777344 1304.320312 1433.816406 1300.964844 C 1428.167969 1299.613281 1422.210938 1300.554688 1417.253906 1303.59375 C 1412.304688 1306.628906 1408.757812 1311.507812 1407.402344 1317.15625 L 1403.277344 1334.351562 C 1401.917969 1340 1402.867188 1345.957031 1405.898438 1350.914062 C 1408.933594 1355.863281 1413.816406 1359.410156 1419.46875 1360.765625 Z M 1419.46875 1360.765625 " clip-rule="nonzero"/></clipPath><clipPath id="7e7dcc14e7"><path d="M 1398.164062 1355.652344 L 1412.515625 1295.855469 L 1494.734375 1315.589844 L 1480.386719 1375.386719 Z M 1398.164062 1355.652344 " clip-rule="nonzero"/></clipPath><clipPath id="68432b6ecb"><path d="M 1419.46875 1360.765625 C 1433.425781 1364.117188 1448.023438 1363.792969 1461.820312 1359.824219 L 1478.183594 1355.121094 C 1482.78125 1353.796875 1486.3125 1350.105469 1487.429688 1345.457031 C 1488.542969 1340.804688 1487.074219 1335.914062 1483.578125 1332.652344 L 1471.132812 1321.03125 C 1460.632812 1311.230469 1447.777344 1304.320312 1433.816406 1300.964844 C 1428.167969 1299.613281 1422.210938 1300.554688 1417.253906 1303.59375 C 1412.304688 1306.628906 1408.757812 1311.507812 1407.402344 1317.15625 L 1403.277344 1334.351562 C 1401.917969 1340 1402.867188 1345.957031 1405.898438 1350.914062 C 1408.933594 1355.863281 1413.816406 1359.410156 1419.46875 1360.765625 Z M 1419.46875 1360.765625 " clip-rule="nonzero"/></clipPath><clipPath id="dbd622512a"><path d="M 305 974 L 378.75 974 L 378.75 1058 L 305 1058 Z M 305 974 " clip-rule="nonzero"/></clipPath><clipPath id="a644b69208"><path d="M 326.445312 965.722656 L 387.640625 1042.367188 L 357.871094 1066.136719 L 296.667969 989.496094 Z M 326.445312 965.722656 " clip-rule="nonzero"/></clipPath><clipPath id="b55a7cf572"><path d="M 372.289062 1023.140625 C 380.730469 1033.710938 380.90625 1047.601562 372.691406 1054.164062 C 364.46875 1060.730469 350.957031 1057.484375 342.519531 1046.914062 L 311.953125 1008.636719 C 303.515625 998.066406 303.335938 984.175781 311.558594 977.605469 C 319.78125 971.042969 333.285156 974.292969 341.726562 984.863281 Z M 372.289062 1023.140625 " clip-rule="nonzero"/></clipPath><clipPath id="4e5b632731"><path d="M 326.445312 965.722656 L 387.640625 1042.367188 L 357.871094 1066.136719 L 296.667969 989.496094 Z M 326.445312 965.722656 " clip-rule="nonzero"/></clipPath><clipPath id="c95fa890af"><path d="M 372.289062 1023.140625 C 380.730469 1033.710938 380.90625 1047.601562 372.691406 1054.164062 C 364.46875 1060.730469 350.957031 1057.484375 342.519531 1046.914062 L 311.953125 1008.636719 C 303.515625 998.066406 303.335938 984.175781 311.558594 977.605469 C 319.78125 971.042969 333.285156 974.292969 341.726562 984.863281 Z M 372.289062 1023.140625 " clip-rule="nonzero"/></clipPath><clipPath id="1db42c379c"><path d="M 501 1113.125 L 597.5 1113.125 L 597.5 1164.375 L 501 1164.375 Z M 501 1113.125 " clip-rule="nonzero"/></clipPath><clipPath id="e5a7fed3bb"><path d="M 506.296875 1108.25 L 601.375 1132.324219 L 592.027344 1169.257812 L 496.949219 1145.183594 Z M 506.296875 1108.25 " clip-rule="nonzero"/></clipPath><clipPath id="eb3e6775c0"><path d="M 577.527344 1126.285156 C 590.640625 1129.605469 599.179688 1140.566406 596.597656 1150.761719 C 594.011719 1160.960938 581.289062 1166.539062 568.171875 1163.21875 L 520.6875 1151.195312 C 507.578125 1147.875 499.042969 1136.917969 501.621094 1126.71875 C 504.203125 1116.519531 516.929688 1110.941406 530.042969 1114.261719 Z M 577.527344 1126.285156 " clip-rule="nonzero"/></clipPath><clipPath id="6000393b8d"><path d="M 506.296875 1108.25 L 601.375 1132.324219 L 592.027344 1169.257812 L 496.949219 1145.183594 Z M 506.296875 1108.25 " clip-rule="nonzero"/></clipPath><clipPath id="7fa0806d9c"><path d="M 577.527344 1126.285156 C 590.640625 1129.605469 599.179688 1140.566406 596.597656 1150.761719 C 594.011719 1160.960938 581.289062 1166.539062 568.171875 1163.21875 L 520.6875 1151.195312 C 507.578125 1147.875 499.042969 1136.917969 501.621094 1126.71875 C 504.203125 1116.519531 516.929688 1110.941406 530.042969 1114.261719 Z M 577.527344 1126.285156 " clip-rule="nonzero"/></clipPath><clipPath id="585a967a88"><path d="M 444.890625 661.667969 L 575.160156 661.667969 L 575.160156 791.9375 L 444.890625 791.9375 Z M 444.890625 661.667969 " clip-rule="nonzero"/></clipPath><clipPath id="863f528940"><path d="M 510.027344 661.667969 C 474.058594 661.667969 444.890625 690.828125 444.890625 726.800781 C 444.890625 762.777344 474.058594 791.9375 510.027344 791.9375 C 546 791.9375 575.160156 762.777344 575.160156 726.800781 C 575.160156 690.828125 546 661.667969 510.027344 661.667969 Z M 510.027344 661.667969 " clip-rule="nonzero"/></clipPath><clipPath id="8eceb2dce4"><path d="M 733.171875 665.625 L 859.488281 665.625 L 859.488281 791.9375 L 733.171875 791.9375 Z M 733.171875 665.625 " clip-rule="nonzero"/></clipPath><clipPath id="b44a0fd03f"><path d="M 796.332031 665.625 C 761.449219 665.625 733.171875 693.902344 733.171875 728.785156 C 733.171875 763.660156 761.449219 791.9375 796.332031 791.9375 C 831.210938 791.9375 859.488281 763.660156 859.488281 728.785156 C 859.488281 693.902344 831.210938 665.625 796.332031 665.625 Z M 796.332031 665.625 " clip-rule="nonzero"/></clipPath></defs><g clip-path="url(#8c0a0e9c32)"><g clip-path="url(#e92510165a)"><g clip-path="url(#46de42aeda)"><path fill="#ffffff" d="M 16.484375 78.832031 L 1308.476562 78.832031 L 1308.476562 1370.824219 L 16.484375 1370.824219 Z M 16.484375 78.832031 " fill-opacity="1" fill-rule="nonzero"/></g></g></g><g clip-path="url(#7130c3be6e)"><g clip-path="url(#7869b85a64)"><path stroke-linecap="butt" transform="matrix(0.9375, 0, 0, 0.9375, 16.482512, 78.83057)" fill="none" stroke-linejoin="miter" d="M 689.064581 0.00155866 C 308.502029 0.00155866 0.00198676 308.501601 0.00198676 689.064153 C 0.00198676 1069.622539 308.502029 1378.122581 689.064581 1378.122581 C 1069.622967 1378.122581 1378.127176 1069.622539 1378.127176 689.064153 C 1378.127176 308.501601 1069.622967 0.00155866 689.064581 0.00155866 Z M 689.064581 0.00155866 " stroke="#302760" stroke-width="100" stroke-opacity="1" stroke-miterlimit="4"/></g></g><g clip-path="url(#ba15bf187d)"><g clip-path="url(#23b328af76)"><path stroke-linecap="butt" transform="matrix(0.9375, 0, 0, 0.9375, 13.805774, 73.337347)" fill="none" stroke-linejoin="miter" d="M 693.415603 -0.00150377 C 310.45305 -0.00150377 -0.00115936 310.448539 -0.00115936 693.415258 C -0.00115936 1076.377811 310.45305 1386.823687 693.415603 1386.823687 C 1076.378155 1386.823687 1386.824031 1076.377811 1386.824031 693.415258 C 1386.824031 310.448539 1076.378155 -0.00150377 693.415603 -0.00150377 Z M 693.415603 -0.00150377 " stroke="#302760" stroke-width="64" stroke-opacity="1" stroke-miterlimit="4"/></g></g><g clip-path="url(#284a3aec12)"><g clip-path="url(#d86c8101b3)"><g clip-path="url(#2da19b8507)"><g clip-path="url(#ae1ba56d6d)"><g clip-path="url(#c525506989)"><path fill="#5087ff" d="M 125.078125 362.515625 L 1017.242188 191.414062 L 1188.339844 1083.578125 L 296.175781 1254.675781 Z M 125.078125 362.515625 " fill-opacity="1" fill-rule="nonzero"/></g></g></g></g></g><g clip-path="url(#04d5878c5c)"><g clip-path="url(#1ca34ce7ec)"><g clip-path="url(#8b44d8de3b)"><g clip-path="url(#5c37d835a2)"><path stroke-linecap="butt" transform="matrix(0.920721, -0.176576, 0.176576, 0.920721, 125.076702, 362.513973)" fill="none" stroke-linejoin="miter" d="M 484.490072 -0.00390953 C 216.916462 0.00343689 0.000523649 216.913228 -0.00109889 484.489361 C 0.000585871 752.07037 216.914469 968.987094 484.494694 968.989501 C 752.072396 968.982939 968.984243 752.072364 968.98665 484.492139 C 968.98418 216.915221 752.070297 -0.00150221 484.490072 -0.00390953 Z M 484.490072 -0.00390953 " stroke="#302760" stroke-width="100" stroke-opacity="1" stroke-miterlimit="4"/></g></g></g></g><g clip-path="url(#b1987d7406)"><g clip-path="url(#a539f7e196)"><g clip-path="url(#f27d47aa28)"><g clip-path="url(#ce29639843)"><g clip-path="url(#9bf887457d)"><path fill="#ffffff" d="M 351.949219 514.3125 L 654.039062 558.636719 L 598.804688 935.074219 L 296.707031 890.746094 Z M 351.949219 514.3125 " fill-opacity="1" fill-rule="nonzero"/></g></g></g></g></g><g clip-path="url(#65198ff4a6)"><g clip-path="url(#e83609749f)"><g clip-path="url(#80b834a8c4)"><g clip-path="url(#a4b7f28dc7)"><path stroke-linecap="butt" transform="matrix(0.927566, 0.136111, -0.136111, 0.927566, 351.948694, 514.310672)" fill="none" stroke-linejoin="miter" d="M 162.834064 -0.00168099 C 72.902348 0.000943854 -0.000480728 90.911162 0.00176382 203.053278 C 0.000490785 315.200122 72.904807 406.107926 162.837128 406.109424 C 252.769449 406.110922 325.671673 315.196581 325.668823 203.050342 C 325.671306 90.911744 252.766385 -0.000183323 162.834064 -0.00168099 Z M 162.834064 -0.00168099 " stroke="#302760" stroke-width="100" stroke-opacity="1" stroke-miterlimit="4"/></g></g></g></g><g clip-path="url(#77443302e9)"><g clip-path="url(#c40c0b7421)"><g clip-path="url(#c699074e58)"><g clip-path="url(#905f14faf2)"><g clip-path="url(#59c081d86e)"><path fill="#ffffff" d="M 646.660156 562.585938 L 947.03125 507.800781 L 1015.300781 882.09375 L 714.929688 936.878906 Z M 646.660156 562.585938 " fill-opacity="1" fill-rule="nonzero"/></g></g></g></g></g><g clip-path="url(#da04eb0d6b)"><g clip-path="url(#bb89f23ef5)"><g clip-path="url(#52ca26807d)"><g clip-path="url(#ce067a031b)"><path stroke-linecap="butt" transform="matrix(0.922285, -0.168219, 0.168219, 0.922285, 646.66193, 562.58842)" fill="none" stroke-linejoin="miter" d="M 162.832759 -0.00172228 C 72.905584 0.00410888 -0.00169373 90.909961 0.000710767 203.055445 C -0.000983775 315.200181 72.907173 406.111941 162.833601 406.110209 C 252.76748 406.114071 325.668802 315.194426 325.673848 203.054537 C 325.671444 90.909053 252.767386 -0.00195911 162.832759 -0.00172228 Z M 162.832759 -0.00172228 " stroke="#302760" stroke-width="100" stroke-opacity="1" stroke-miterlimit="4"/></g></g></g></g><g clip-path="url(#4ec707f33a)"><g clip-path="url(#12a15a8e38)"><g clip-path="url(#ab6f3907f8)"><g clip-path="url(#e641543ca6)"><g clip-path="url(#3ce65c1715)"><path fill="#6d72e0" d="M 463.71875 1282.554688 L 254.167969 1166.070312 L 344.53125 1003.503906 L 554.085938 1119.988281 Z M 463.71875 1282.554688 " fill-opacity="1" fill-rule="nonzero"/></g></g></g></g></g><g clip-path="url(#f5de5a8a9b)"><g clip-path="url(#b4161bd75f)"><g clip-path="url(#a8bce823ff)"><g clip-path="url(#4535a67140)"><path stroke-linecap="butt" transform="matrix(-0.819415, -0.455484, 0.455484, -0.819415, 463.716617, 1282.550846)" fill="none" stroke-linejoin="miter" d="M 127.81805 -0.000269435 L 255.644407 198.37372 L 0.00237157 198.372947 Z M 127.81805 -0.000269435 " stroke="#302760" stroke-width="100" stroke-opacity="1" stroke-miterlimit="4"/></g></g></g></g><g clip-path="url(#14a7ae3f69)"><g clip-path="url(#b5989a9d58)"><g clip-path="url(#1f72bba080)"><g clip-path="url(#b1ea0876fe)"><g clip-path="url(#2c93fde0fe)"><path fill="#ffffff" d="M 1158.792969 1058.085938 L 1352.480469 1203.34375 L 1283.101562 1295.847656 L 1089.417969 1150.589844 Z M 1158.792969 1058.085938 " fill-opacity="1" fill-rule="nonzero"/></g></g></g></g></g><path stroke-linecap="round" transform="matrix(0.910082, 0.225067, -0.225067, 0.910082, 734.217618, 1054.655385)" fill="none" stroke-linejoin="miter" d="M 33.853379 89.589591 C 194.761219 2.401959 366.772147 2.806282 549.886161 90.802559 " stroke="#302760" stroke-width="49" stroke-opacity="1" stroke-miterlimit="4"/><g clip-path="url(#e7ddb59ed6)"><g clip-path="url(#d6a3f9de45)"><g clip-path="url(#6f122e9bc5)"><g clip-path="url(#255504acc6)"><g clip-path="url(#31da96331e)"><path fill="#ffffff" d="M 1268.804688 1200.21875 L 1421.421875 1283.601562 L 1384.296875 1351.550781 L 1231.679688 1268.167969 Z M 1268.804688 1200.21875 " fill-opacity="1" fill-rule="nonzero"/></g></g></g></g></g><path stroke-linecap="round" transform="matrix(0.882779, 0.315607, -0.315607, 0.882779, 1199.88989, 1226.85621)" fill="none" stroke-linejoin="miter" d="M 31.809081 30.947115 C 110.680082 55.826732 189.543128 55.818856 268.417837 30.916474 " stroke="#302760" stroke-width="49" stroke-opacity="1" stroke-miterlimit="4"/><path stroke-linecap="butt" transform="matrix(0.615836, 0.70686, -0.70686, 0.615836, 1200.492362, 1008.691525)" fill="none" stroke-linejoin="miter" d="M 6.3363 23.972595 C 137.900971 59.211558 287.166753 59.208014 454.140335 23.973317 " stroke="#302760" stroke-width="49" stroke-opacity="1" stroke-miterlimit="4"/><g clip-path="url(#bd714087be)"><g clip-path="url(#00ef29bdb1)"><g clip-path="url(#a3dbe55233)"><g clip-path="url(#3389c91e3b)"><g clip-path="url(#c970f9a9de)"><path fill="#5087ff" d="M 498.691406 1217.851562 L 288.890625 1101.230469 L 390.785156 917.925781 L 600.585938 1034.546875 Z M 498.691406 1217.851562 " fill-opacity="1" fill-rule="nonzero"/></g></g></g></g></g><g clip-path="url(#258c3a9ff2)"><g clip-path="url(#efb6096b54)"><g clip-path="url(#5d4bfd1829)"><g clip-path="url(#de4a7a199e)"><g clip-path="url(#de1cc3c0eb)"><path fill="#302760" d="M 1065.117188 1141.527344 L 1170.550781 1199.136719 L 1150.183594 1236.414062 L 1044.746094 1178.8125 Z M 1065.117188 1141.527344 " fill-opacity="1" fill-rule="nonzero"/></g></g></g></g></g><g clip-path="url(#14232684ff)"><g clip-path="url(#488b457bd1)"><g clip-path="url(#378ab2a32f)"><g clip-path="url(#df3808a72f)"><g clip-path="url(#88a0ceadab)"><path fill="#ffffff" d="M 1059.277344 1052.613281 L 1214.78125 1130.492188 L 1180.105469 1199.722656 L 1024.605469 1121.84375 Z M 1059.277344 1052.613281 " fill-opacity="1" fill-rule="nonzero"/></g></g></g></g></g><g clip-path="url(#79c5a24bff)"><g clip-path="url(#cdfdc52256)"><g clip-path="url(#fbdac8c6c4)"><g clip-path="url(#0d0c4be6ce)"><g clip-path="url(#b8f0243772)"><path fill="#ffffff" d="M 1141.121094 1002.742188 L 1218.0625 1126.707031 L 1172.203125 1155.171875 L 1095.261719 1031.210938 Z M 1141.121094 1002.742188 " fill-opacity="1" fill-rule="nonzero"/></g></g></g></g></g><g clip-path="url(#aaed1604bc)"><g clip-path="url(#390b4c430f)"><g clip-path="url(#8fb3766956)"><g clip-path="url(#f2938eec93)"><g clip-path="url(#f613ef6801)"><path fill="#ffffff" d="M 1090.835938 1073.367188 L 1163.695312 946.96875 L 1210.453125 973.921875 L 1137.59375 1100.320312 Z M 1090.835938 1073.367188 " fill-opacity="1" fill-rule="nonzero"/></g></g></g></g></g><g clip-path="url(#ae2d6c4440)"><g clip-path="url(#b1f3d7db84)"><g clip-path="url(#76ad774e94)"><g clip-path="url(#7e7dcc14e7)"><g clip-path="url(#68432b6ecb)"><path fill="#302760" d="M 1398.164062 1355.652344 L 1412.515625 1295.855469 L 1507.816406 1318.730469 L 1493.464844 1378.523438 Z M 1398.164062 1355.652344 " fill-opacity="1" fill-rule="nonzero"/></g></g></g></g></g><path stroke-linecap="butt" transform="matrix(0.361232, 0.865111, -0.865111, 0.361232, 320.420221, 951.482946)" fill="none" stroke-linejoin="miter" d="M 3.055526 28.036215 C 78.014147 3.986907 138.920571 3.988498 185.789542 28.038113 " stroke="#302760" stroke-width="20" stroke-opacity="1" stroke-miterlimit="4"/><path stroke-linecap="butt" transform="matrix(0.911445, -0.219485, 0.219485, 0.911445, 395.971406, 1158.474144)" fill="none" stroke-linejoin="miter" d="M 3.337223 31.192451 C 83.159341 2.932282 143.836999 2.93385 185.353018 31.197303 " stroke="#302760" stroke-width="20" stroke-opacity="1" stroke-miterlimit="4"/><g clip-path="url(#dbd622512a)"><g clip-path="url(#a644b69208)"><g clip-path="url(#b55a7cf572)"><g clip-path="url(#4e5b632731)"><g clip-path="url(#c95fa890af)"><path fill="#302760" d="M 326.445312 965.722656 L 387.546875 1042.25 L 357.777344 1066.023438 L 296.667969 989.496094 Z M 326.445312 965.722656 " fill-opacity="1" fill-rule="nonzero"/></g></g></g></g></g><g clip-path="url(#1db42c379c)"><g clip-path="url(#e5a7fed3bb)"><g clip-path="url(#eb3e6775c0)"><g clip-path="url(#6000393b8d)"><g clip-path="url(#7fa0806d9c)"><path fill="#302760" d="M 506.296875 1108.25 L 601.234375 1132.285156 L 591.878906 1169.222656 L 496.949219 1145.183594 Z M 506.296875 1108.25 " fill-opacity="1" fill-rule="nonzero"/></g></g></g></g></g><g clip-path="url(#585a967a88)"><g clip-path="url(#863f528940)"><path stroke-linecap="butt" transform="matrix(0.9375, 0, 0, 0.9375, 444.894835, 661.669027)" fill="none" stroke-linejoin="miter" d="M 69.474686 -0.00112881 C 31.108014 -0.00112881 -0.0044907 31.103042 -0.0044907 69.473881 C -0.0044907 107.848886 31.108014 138.953057 69.474686 138.953057 C 107.845524 138.953057 138.949695 107.848886 138.949695 69.473881 C 138.949695 31.103042 107.845524 -0.00112881 69.474686 -0.00112881 Z M 69.474686 -0.00112881 " stroke="#302760" stroke-width="140" stroke-opacity="1" stroke-miterlimit="4"/></g></g><g clip-path="url(#8eceb2dce4)"><g clip-path="url(#b44a0fd03f)"><path stroke-linecap="butt" transform="matrix(0.9375, 0, 0, 0.9375, 733.173906, 665.626795)" fill="none" stroke-linejoin="miter" d="M 67.368676 -0.00191431 C 30.160338 -0.00191431 -0.00216661 30.16059 -0.00216661 67.368928 C -0.00216661 104.568933 30.160338 134.731438 67.368676 134.731438 C 104.572848 134.731438 134.735352 104.568933 134.735352 67.368928 C 134.735352 30.16059 104.572848 -0.00191431 67.368676 -0.00191431 Z M 67.368676 -0.00191431 " stroke="#302760" stroke-width="134" stroke-opacity="1" stroke-miterlimit="4"/></g></g><path stroke-linecap="round" transform="matrix(0.853429, 0.388029, -0.388029, 0.853429, 582.496687, 892.842791)" fill="none" stroke-linejoin="miter" d="M 28.155019 26.892703 C 75.555253 61.66275 122.964988 61.642322 170.369395 26.829007 " stroke="#302760" stroke-width="39" stroke-opacity="1" stroke-miterlimit="4"/></svg>