<svg xmlns="http://www.w3.org/2000/svg" xmlns:xlink="http://www.w3.org/1999/xlink" width="2000" zoomAndPan="magnify" viewBox="0 0 1500 1499.999933" height="2000" preserveAspectRatio="xMidYMid meet" version="1.0"><defs><clipPath id="b1f9680e61"><path d="M 199.1875 223.566406 L 1232.78125 223.566406 L 1232.78125 1257.160156 L 199.1875 1257.160156 Z M 199.1875 223.566406 " clip-rule="nonzero"/></clipPath><clipPath id="f401364e27"><path d="M 715.984375 223.566406 C 430.5625 223.566406 199.1875 454.941406 199.1875 740.363281 C 199.1875 1025.78125 430.5625 1257.160156 715.984375 1257.160156 C 1001.402344 1257.160156 1232.78125 1025.78125 1232.78125 740.363281 C 1232.78125 454.941406 1001.402344 223.566406 715.984375 223.566406 Z M 715.984375 223.566406 " clip-rule="nonzero"/></clipPath><clipPath id="bf114c5168"><path d="M 0.1875 0.566406 L 1033.78125 0.566406 L 1033.78125 1034.160156 L 0.1875 1034.160156 Z M 0.1875 0.566406 " clip-rule="nonzero"/></clipPath><clipPath id="daab667d6b"><path d="M 516.984375 0.566406 C 231.5625 0.566406 0.1875 231.941406 0.1875 517.363281 C 0.1875 802.78125 231.5625 1034.160156 516.984375 1034.160156 C 802.402344 1034.160156 1033.78125 802.78125 1033.78125 517.363281 C 1033.78125 231.941406 802.402344 0.566406 516.984375 0.566406 Z M 516.984375 0.566406 " clip-rule="nonzero"/></clipPath><clipPath id="423e38e802"><rect x="0" width="1034" y="0" height="1035"/></clipPath><clipPath id="5823ea26ca"><path d="M 199.1875 223.566406 L 1232.6875 223.566406 L 1232.6875 1257.0625 L 199.1875 1257.0625 Z M 199.1875 223.566406 " clip-rule="nonzero"/></clipPath><clipPath id="d096813ed3"><path d="M 715.984375 223.566406 C 430.5625 223.566406 199.1875 454.941406 199.1875 740.363281 C 199.1875 1025.78125 430.5625 1257.15625 715.984375 1257.15625 C 1001.402344 1257.15625 1232.78125 1025.78125 1232.78125 740.363281 C 1232.78125 454.941406 1001.402344 223.566406 715.984375 223.566406 Z M 715.984375 223.566406 " clip-rule="nonzero"/></clipPath><clipPath id="96b7d07823"><path d="M 197.042969 219.167969 L 1237.164062 219.167969 L 1237.164062 1259.289062 L 197.042969 1259.289062 Z M 197.042969 219.167969 " clip-rule="nonzero"/></clipPath><clipPath id="0edd3f9944"><path d="M 717.105469 219.167969 C 429.882812 219.167969 197.042969 452.007812 197.042969 739.230469 C 197.042969 1026.453125 429.882812 1259.289062 717.105469 1259.289062 C 1004.328125 1259.289062 1237.164062 1026.453125 1237.164062 739.230469 C 1237.164062 452.007812 1004.328125 219.167969 717.105469 219.167969 Z M 717.105469 219.167969 " clip-rule="nonzero"/></clipPath><clipPath id="771488d012"><path d="M 347 375 L 1075 375 L 1075 1103 L 347 1103 Z M 347 375 " clip-rule="nonzero"/></clipPath><clipPath id="a4dbe8fe60"><path d="M 286.0625 450.511719 L 999.792969 313.632812 L 1136.671875 1027.363281 L 422.941406 1164.242188 Z M 286.0625 450.511719 " clip-rule="nonzero"/></clipPath><clipPath id="280cfb1787"><path d="M 642.925781 382.070312 C 445.835938 419.871094 316.703125 610.285156 354.5 807.378906 C 392.300781 1004.46875 582.714844 1133.601562 779.808594 1095.804688 C 976.898438 1058.003906 1106.03125 867.589844 1068.234375 670.496094 C 1030.433594 473.40625 840.019531 344.273438 642.925781 382.070312 Z M 642.925781 382.070312 " clip-rule="nonzero"/></clipPath><clipPath id="b721f9209e"><path d="M 0 0 L 728 0 L 728 728 L 0 728 Z M 0 0 " clip-rule="nonzero"/></clipPath><clipPath id="c335022743"><path d="M -60.9375 75.511719 L 652.792969 -61.367188 L 789.671875 652.363281 L 75.941406 789.242188 Z M -60.9375 75.511719 " clip-rule="nonzero"/></clipPath><clipPath id="3659de824c"><path d="M 295.925781 7.070312 C 98.835938 44.871094 -30.296875 235.285156 7.5 432.378906 C 45.300781 629.46875 235.714844 758.601562 432.808594 720.804688 C 629.898438 683.003906 759.03125 492.589844 721.234375 295.496094 C 683.433594 98.40625 493.019531 -30.726562 295.925781 7.070312 Z M 295.925781 7.070312 " clip-rule="nonzero"/></clipPath><clipPath id="d8c5554836"><rect x="0" width="728" y="0" height="728"/></clipPath><clipPath id="5650c611e2"><path d="M 347 375 L 1075 375 L 1075 1103 L 347 1103 Z M 347 375 " clip-rule="nonzero"/></clipPath><clipPath id="ae986c06f1"><path d="M 286.0625 450.511719 L 999.804688 313.628906 L 1136.6875 1027.371094 L 422.941406 1164.253906 Z M 286.0625 450.511719 " clip-rule="nonzero"/></clipPath><clipPath id="48377e7d71"><path d="M 286.0625 450.511719 L 999.792969 313.632812 L 1136.671875 1027.363281 L 422.941406 1164.242188 Z M 286.0625 450.511719 " clip-rule="nonzero"/></clipPath><clipPath id="ad447c8071"><path d="M 642.925781 382.070312 C 445.835938 419.871094 316.703125 610.285156 354.5 807.375 C 392.300781 1004.46875 582.714844 1133.601562 779.808594 1095.800781 C 976.898438 1058.003906 1106.03125 867.589844 1068.234375 670.496094 C 1030.433594 473.40625 840.019531 344.273438 642.925781 382.070312 Z M 642.925781 382.070312 " clip-rule="nonzero"/></clipPath><clipPath id="cc51a153ca"><path d="M 443 588 L 690 588 L 690 893 L 443 893 Z M 443 588 " clip-rule="nonzero"/></clipPath><clipPath id="6285021911"><path d="M 467.558594 571.949219 L 709.230469 607.410156 L 664.902344 909.503906 L 423.230469 874.039062 Z M 467.558594 571.949219 " clip-rule="nonzero"/></clipPath><clipPath id="56aceb6dfd"><path d="M 588.394531 589.679688 C 521.660156 579.886719 457.660156 639.410156 445.449219 722.632812 C 433.234375 805.851562 477.4375 881.253906 544.171875 891.046875 C 610.910156 900.839844 674.910156 841.3125 687.121094 758.09375 C 699.332031 674.875 655.132812 599.472656 588.394531 589.679688 Z M 588.394531 589.679688 " clip-rule="nonzero"/></clipPath><clipPath id="f11922ac69"><path d="M 0 0 L 247 0 L 247 305 L 0 305 Z M 0 0 " clip-rule="nonzero"/></clipPath><clipPath id="fcf6c24e22"><path d="M 24.558594 -16.050781 L 266.230469 19.410156 L 221.902344 321.503906 L -19.769531 286.039062 Z M 24.558594 -16.050781 " clip-rule="nonzero"/></clipPath><clipPath id="b040cbfdd4"><path d="M 145.394531 1.679688 C 78.660156 -8.113281 14.660156 51.410156 2.449219 134.632812 C -9.765625 217.851562 34.4375 293.253906 101.171875 303.046875 C 167.910156 312.839844 231.910156 253.3125 244.121094 170.09375 C 256.332031 86.875 212.132812 11.472656 145.394531 1.679688 Z M 145.394531 1.679688 " clip-rule="nonzero"/></clipPath><clipPath id="36e1c21de8"><rect x="0" width="247" y="0" height="305"/></clipPath><clipPath id="9f64bea102"><path d="M 443 588 L 690 588 L 690 893 L 443 893 Z M 443 588 " clip-rule="nonzero"/></clipPath><clipPath id="f454fdb38e"><path d="M 467.558594 571.949219 L 709.46875 607.445312 L 665.257812 908.71875 L 423.351562 873.222656 Z M 467.558594 571.949219 " clip-rule="nonzero"/></clipPath><clipPath id="49adf1d3c8"><path d="M 467.558594 571.949219 L 709.222656 607.410156 L 664.898438 909.492188 L 423.230469 874.03125 Z M 467.558594 571.949219 " clip-rule="nonzero"/></clipPath><clipPath id="0ab932cc8e"><path d="M 588.390625 589.679688 C 521.65625 579.886719 457.660156 639.410156 445.449219 722.625 C 433.238281 805.84375 477.4375 881.242188 544.171875 891.035156 C 610.90625 900.828125 674.902344 841.304688 687.113281 758.085938 C 699.324219 674.871094 655.125 599.472656 588.390625 589.679688 Z M 588.390625 589.679688 " clip-rule="nonzero"/></clipPath><clipPath id="f5e943c64f"><path d="M 727 587 L 975 587 L 975 890 L 727 890 Z M 727 587 " clip-rule="nonzero"/></clipPath><clipPath id="5fdafa3672"><path d="M 703.328125 610.570312 L 943.625 566.742188 L 998.410156 867.113281 L 758.113281 910.941406 Z M 703.328125 610.570312 " clip-rule="nonzero"/></clipPath><clipPath id="29b617cfcb"><path d="M 823.476562 588.65625 C 757.121094 600.757812 715.5625 677.648438 730.65625 760.394531 C 745.75 843.140625 811.777344 900.410156 878.132812 888.304688 C 944.488281 876.203125 986.046875 799.3125 970.953125 716.566406 C 955.859375 633.820312 889.832031 576.554688 823.476562 588.65625 Z M 823.476562 588.65625 " clip-rule="nonzero"/></clipPath><clipPath id="8796391fc0"><path d="M 0 0 L 248 0 L 248 303 L 0 303 Z M 0 0 " clip-rule="nonzero"/></clipPath><clipPath id="2eb184e20f"><path d="M -23.671875 23.570312 L 216.625 -20.257812 L 271.410156 280.113281 L 31.113281 323.941406 Z M -23.671875 23.570312 " clip-rule="nonzero"/></clipPath><clipPath id="bf123c9e25"><path d="M 96.476562 1.65625 C 30.121094 13.757812 -11.4375 90.648438 3.65625 173.394531 C 18.75 256.140625 84.777344 313.410156 151.132812 301.304688 C 217.488281 289.203125 259.046875 212.3125 243.953125 129.566406 C 228.859375 46.820312 162.832031 -10.445312 96.476562 1.65625 Z M 96.476562 1.65625 " clip-rule="nonzero"/></clipPath><clipPath id="98d7ed1f3b"><rect x="0" width="248" y="0" height="303"/></clipPath><clipPath id="b49e96efb2"><path d="M 727 587 L 975 587 L 975 890 L 727 890 Z M 727 587 " clip-rule="nonzero"/></clipPath><clipPath id="1fa35e662e"><path d="M 703.328125 610.570312 L 943.859375 566.699219 L 998.5 866.257812 L 757.964844 910.128906 Z M 703.328125 610.570312 " clip-rule="nonzero"/></clipPath><clipPath id="c1a55758d8"><path d="M 703.328125 610.570312 L 943.617188 566.742188 L 998.402344 867.105469 L 758.113281 910.933594 Z M 703.328125 610.570312 " clip-rule="nonzero"/></clipPath><clipPath id="b7751c5630"><path d="M 823.472656 588.65625 C 757.121094 600.761719 715.5625 677.648438 730.65625 760.390625 C 745.746094 843.132812 811.773438 900.398438 878.125 888.296875 C 944.480469 876.195312 986.035156 799.304688 970.945312 716.5625 C 955.851562 633.820312 889.828125 576.554688 823.472656 588.65625 Z M 823.472656 588.65625 " clip-rule="nonzero"/></clipPath><clipPath id="ae78f45d47"><path d="M 461 963 L 630 963 L 630 1140 L 461 1140 Z M 461 963 " clip-rule="nonzero"/></clipPath><clipPath id="7019b94a43"><path d="M 556.976562 1186.542969 L 389.335938 1093.355469 L 461.625 963.304688 L 629.269531 1056.492188 Z M 556.976562 1186.542969 " clip-rule="nonzero"/></clipPath><clipPath id="b64f33dbfa"><path d="M 473.179688 1139.964844 L 461.675781 963.332031 L 629.269531 1056.492188 Z M 473.179688 1139.964844 " clip-rule="nonzero"/></clipPath><clipPath id="db2b5955a9"><path d="M 0.519531 0.121094 L 168.28125 0.121094 L 168.28125 177 L 0.519531 177 Z M 0.519531 0.121094 " clip-rule="nonzero"/></clipPath><clipPath id="ad706100cb"><path d="M 95.976562 223.542969 L -71.664062 130.355469 L 0.625 0.304688 L 168.269531 93.492188 Z M 95.976562 223.542969 " clip-rule="nonzero"/></clipPath><clipPath id="218876b980"><path d="M 12.179688 176.964844 L 0.675781 0.332031 L 168.269531 93.492188 Z M 12.179688 176.964844 " clip-rule="nonzero"/></clipPath><clipPath id="34fdf10326"><rect x="0" width="169" y="0" height="177"/></clipPath><clipPath id="2fd7b47305"><path d="M 461 963 L 630 963 L 630 1140 L 461 1140 Z M 461 963 " clip-rule="nonzero"/></clipPath><clipPath id="ed646af12a"><path d="M 556.976562 1186.542969 L 389.160156 1093.261719 L 461.308594 963.464844 L 629.125 1056.75 Z M 556.976562 1186.542969 " clip-rule="nonzero"/></clipPath><clipPath id="8ddfe36f82"><path d="M 556.972656 1186.539062 L 389.390625 1093.386719 L 462.167969 962.464844 L 629.75 1055.617188 Z M 556.972656 1186.539062 " clip-rule="nonzero"/></clipPath><clipPath id="b8550d14e0"><path d="M 473.183594 1139.964844 L 461.675781 963.347656 L 629.257812 1056.5 Z M 473.183594 1139.964844 " clip-rule="nonzero"/></clipPath><clipPath id="d61de12922"><path d="M 1077 1027 L 1249 1027 L 1249 1177 L 1077 1177 Z M 1077 1027 " clip-rule="nonzero"/></clipPath><clipPath id="fc83947cff"><path d="M 1113.035156 1006.96875 L 1268.273438 1123.394531 L 1212.769531 1197.398438 L 1057.535156 1080.972656 Z M 1113.035156 1006.96875 " clip-rule="nonzero"/></clipPath><clipPath id="12a63047cf"><path d="M 1222.789062 1089.28125 C 1247.753906 1108.003906 1255.570312 1139.75 1240.242188 1160.1875 C 1224.917969 1180.621094 1192.253906 1182.011719 1167.285156 1163.285156 L 1102.742188 1114.878906 C 1077.773438 1096.152344 1069.957031 1064.40625 1085.285156 1043.972656 C 1100.613281 1023.535156 1133.277344 1022.148438 1158.242188 1040.875 Z M 1222.789062 1089.28125 " clip-rule="nonzero"/></clipPath><clipPath id="6416f213af"><path d="M 0 0 L 172 0 L 172 150 L 0 150 Z M 0 0 " clip-rule="nonzero"/></clipPath><clipPath id="9a37ee7ac3"><path d="M 36.035156 -20.03125 L 191.273438 96.394531 L 135.769531 170.398438 L -19.464844 53.972656 Z M 36.035156 -20.03125 " clip-rule="nonzero"/></clipPath><clipPath id="039c86c70c"><path d="M 145.789062 62.28125 C 170.753906 81.003906 178.570312 112.75 163.242188 133.1875 C 147.917969 153.621094 115.253906 155.011719 90.285156 136.285156 L 25.742188 87.878906 C 0.773438 69.152344 -7.042969 37.40625 8.285156 16.972656 C 23.613281 -3.464844 56.277344 -4.851562 81.242188 13.875 Z M 145.789062 62.28125 " clip-rule="nonzero"/></clipPath><clipPath id="4b34279a6f"><rect x="0" width="172" y="0" height="150"/></clipPath><clipPath id="92cb87313a"><path d="M 1184 1136 L 1311 1136 L 1311 1226 L 1184 1226 Z M 1184 1136 " clip-rule="nonzero"/></clipPath><clipPath id="458a151150"><path d="M 1201.042969 1120.675781 L 1323.351562 1187.5 L 1293.652344 1241.859375 L 1171.34375 1175.035156 Z M 1201.042969 1120.675781 " clip-rule="nonzero"/></clipPath><clipPath id="b4e047bfe2"><path d="M 1273.597656 1160.316406 C 1300.984375 1175.28125 1316.539062 1199.578125 1308.335938 1214.589844 C 1300.136719 1229.601562 1271.285156 1229.640625 1243.898438 1214.675781 L 1220.929688 1202.128906 C 1193.542969 1187.164062 1177.992188 1162.867188 1186.191406 1147.855469 C 1194.394531 1132.84375 1223.242188 1132.804688 1250.628906 1147.769531 Z M 1273.597656 1160.316406 " clip-rule="nonzero"/></clipPath><clipPath id="0ee6c20ce3"><path d="M 0 0 L 127 0 L 127 90 L 0 90 Z M 0 0 " clip-rule="nonzero"/></clipPath><clipPath id="9c796997af"><path d="M 17.042969 -15.324219 L 139.351562 51.5 L 109.652344 105.859375 L -12.65625 39.035156 Z M 17.042969 -15.324219 " clip-rule="nonzero"/></clipPath><clipPath id="715b8d0184"><path d="M 89.597656 24.316406 C 116.984375 39.28125 132.539062 63.578125 124.335938 78.589844 C 116.136719 93.601562 87.285156 93.640625 59.898438 78.675781 L 36.929688 66.128906 C 9.542969 51.164062 -6.007812 26.867188 2.191406 11.855469 C 10.394531 -3.15625 39.242188 -3.195312 66.628906 11.769531 Z M 89.597656 24.316406 " clip-rule="nonzero"/></clipPath><clipPath id="fcecf35848"><rect x="0" width="127" y="0" height="90"/></clipPath><clipPath id="69bcee9e10"><path d="M 498 894 L 667 894 L 667 1089 L 498 1089 Z M 498 894 " clip-rule="nonzero"/></clipPath><clipPath id="e1d6f2861f"><path d="M 584.953125 1134.78125 L 417.113281 1041.484375 L 498.628906 894.839844 L 666.46875 988.136719 Z M 584.953125 1134.78125 " clip-rule="nonzero"/></clipPath><clipPath id="69ada3eb15"><path d="M 501.15625 1088.199219 L 498.875 894.976562 L 666.46875 988.136719 Z M 501.15625 1088.199219 " clip-rule="nonzero"/></clipPath><clipPath id="5e3e6b24f4"><path d="M 0.71875 0.960938 L 168.480469 0.960938 L 168.480469 194.398438 L 0.71875 194.398438 Z M 0.71875 0.960938 " clip-rule="nonzero"/></clipPath><clipPath id="78c82ff8cf"><path d="M 86.953125 240.78125 L -80.886719 147.484375 L 0.628906 0.839844 L 168.46875 94.136719 Z M 86.953125 240.78125 " clip-rule="nonzero"/></clipPath><clipPath id="67f822792f"><path d="M 3.15625 194.199219 L 0.875 0.976562 L 168.46875 94.136719 Z M 3.15625 194.199219 " clip-rule="nonzero"/></clipPath><clipPath id="0932a314f7"><rect x="0" width="169" y="0" height="195"/></clipPath><clipPath id="a9b29e2ef9"><path d="M 1028 1081 L 1116 1081 L 1116 1143 L 1028 1143 Z M 1028 1081 " clip-rule="nonzero"/></clipPath><clipPath id="7e3383e1da"><path d="M 1038.09375 1073.722656 L 1122.441406 1119.808594 L 1106.148438 1149.632812 L 1021.796875 1103.550781 Z M 1038.09375 1073.722656 " clip-rule="nonzero"/></clipPath><clipPath id="9e8a7be4b6"><path d="M 1101.808594 1108.535156 C 1113.203125 1114.761719 1118.792969 1126.484375 1114.292969 1134.71875 C 1109.792969 1142.957031 1096.90625 1144.585938 1085.511719 1138.359375 L 1042.429688 1114.824219 C 1031.035156 1108.597656 1025.445312 1096.871094 1029.945312 1088.636719 C 1034.445312 1080.402344 1047.332031 1078.769531 1058.726562 1084.996094 Z M 1101.808594 1108.535156 " clip-rule="nonzero"/></clipPath><clipPath id="207661f627"><path d="M 0 0 L 88 0 L 88 62 L 0 62 Z M 0 0 " clip-rule="nonzero"/></clipPath><clipPath id="a88da1a38a"><path d="M 10.09375 -7.277344 L 94.441406 38.808594 L 78.148438 68.632812 L -6.203125 22.550781 Z M 10.09375 -7.277344 " clip-rule="nonzero"/></clipPath><clipPath id="baa1e7b6c9"><path d="M 73.808594 27.535156 C 85.203125 33.761719 90.792969 45.484375 86.292969 53.71875 C 81.792969 61.957031 68.90625 63.585938 57.511719 57.359375 L 14.429688 33.824219 C 3.035156 27.597656 -2.554688 15.871094 1.945312 7.636719 C 6.445312 -0.597656 19.332031 -2.230469 30.726562 3.996094 Z M 73.808594 27.535156 " clip-rule="nonzero"/></clipPath><clipPath id="2109308897"><rect x="0" width="88" y="0" height="62"/></clipPath><clipPath id="061faccfc0"><path d="M 1017 1018 L 1146 1018 L 1146 1105 L 1017 1105 Z M 1017 1018 " clip-rule="nonzero"/></clipPath><clipPath id="505f8e36c7"><path d="M 1033.421875 1002.589844 L 1158.039062 1065 L 1130.300781 1120.386719 L 1005.683594 1057.976562 Z M 1033.421875 1002.589844 " clip-rule="nonzero"/></clipPath><clipPath id="704992dac3"><path d="M 1107.347656 1039.613281 C 1135.253906 1053.589844 1151.664062 1077.316406 1144.003906 1092.609375 C 1136.34375 1107.90625 1107.515625 1108.972656 1079.609375 1095 L 1056.210938 1083.28125 C 1028.304688 1069.304688 1011.894531 1045.578125 1019.554688 1030.28125 C 1027.214844 1014.988281 1056.042969 1013.917969 1083.949219 1027.894531 Z M 1107.347656 1039.613281 " clip-rule="nonzero"/></clipPath><clipPath id="64e0f06982"><path d="M 0 0 L 129 0 L 129 87 L 0 87 Z M 0 0 " clip-rule="nonzero"/></clipPath><clipPath id="cadc9bd601"><path d="M 16.421875 -15.410156 L 141.039062 47 L 113.300781 102.386719 L -11.316406 39.976562 Z M 16.421875 -15.410156 " clip-rule="nonzero"/></clipPath><clipPath id="2a6772b961"><path d="M 90.347656 21.613281 C 118.253906 35.589844 134.664062 59.316406 127.003906 74.609375 C 119.34375 89.90625 90.515625 90.972656 62.609375 77 L 39.210938 65.28125 C 11.304688 51.304688 -5.105469 27.578125 2.554688 12.28125 C 10.214844 -3.011719 39.042969 -4.082031 66.949219 9.894531 Z M 90.347656 21.613281 " clip-rule="nonzero"/></clipPath><clipPath id="e26279d805"><rect x="0" width="129" y="0" height="87"/></clipPath><clipPath id="7ffa918654"><path d="M 1072 971 L 1151 971 L 1151 1076 L 1072 1076 Z M 1072 971 " clip-rule="nonzero"/></clipPath><clipPath id="72ab104ef6"><path d="M 1098.898438 962.695312 L 1160.449219 1061.867188 L 1123.761719 1084.636719 L 1062.210938 985.46875 Z M 1098.898438 962.695312 " clip-rule="nonzero"/></clipPath><clipPath id="2deea947cd"><path d="M 1144.664062 1036.433594 C 1153.363281 1050.449219 1152.203125 1066.910156 1142.074219 1073.199219 C 1131.941406 1079.488281 1116.675781 1073.222656 1107.976562 1059.203125 L 1077.964844 1010.847656 C 1069.265625 996.828125 1070.425781 980.371094 1080.554688 974.082031 C 1090.6875 967.792969 1105.953125 974.058594 1114.652344 988.078125 Z M 1144.664062 1036.433594 " clip-rule="nonzero"/></clipPath><clipPath id="f6891495d8"><path d="M 0 0 L 79 0 L 79 105 L 0 105 Z M 0 0 " clip-rule="nonzero"/></clipPath><clipPath id="025941dbd7"><path d="M 26.898438 -8.304688 L 88.449219 90.867188 L 51.761719 113.636719 L -9.789062 14.46875 Z M 26.898438 -8.304688 " clip-rule="nonzero"/></clipPath><clipPath id="00a4bd1fa4"><path d="M 72.664062 65.433594 C 81.363281 79.449219 80.203125 95.910156 70.074219 102.199219 C 59.941406 108.488281 44.675781 102.222656 35.976562 88.203125 L 5.964844 39.847656 C -2.734375 25.828125 -1.574219 9.371094 8.554688 3.082031 C 18.6875 -3.207031 33.953125 3.058594 42.652344 17.078125 Z M 72.664062 65.433594 " clip-rule="nonzero"/></clipPath><clipPath id="12d886c455"><rect x="0" width="79" y="0" height="105"/></clipPath><clipPath id="7924062c6d"><path d="M 1068 926 L 1145 926 L 1145 1033 L 1068 1033 Z M 1068 926 " clip-rule="nonzero"/></clipPath><clipPath id="214e0f7bdb"><path d="M 1058.667969 1019.195312 L 1116.957031 918.074219 L 1154.363281 939.636719 L 1096.074219 1040.757812 Z M 1058.667969 1019.195312 " clip-rule="nonzero"/></clipPath><clipPath id="e119ba4d3e"><path d="M 1102.007812 944.007812 C 1110.246094 929.714844 1125.296875 922.957031 1135.628906 928.910156 C 1145.957031 934.863281 1147.65625 951.277344 1139.414062 965.570312 L 1110.992188 1014.878906 C 1102.753906 1029.171875 1087.703125 1035.933594 1077.371094 1029.976562 C 1067.039062 1024.023438 1065.34375 1007.609375 1073.582031 993.316406 Z M 1102.007812 944.007812 " clip-rule="nonzero"/></clipPath><clipPath id="0b575eaa4d"><path d="M 0 0 L 77 0 L 77 107 L 0 107 Z M 0 0 " clip-rule="nonzero"/></clipPath><clipPath id="4b1e3e29f1"><path d="M -9.332031 93.195312 L 48.957031 -7.925781 L 86.363281 13.636719 L 28.074219 114.757812 Z M -9.332031 93.195312 " clip-rule="nonzero"/></clipPath><clipPath id="389240d3b9"><path d="M 34.007812 18.007812 C 42.246094 3.714844 57.296875 -3.042969 67.628906 2.910156 C 77.957031 8.863281 79.65625 25.277344 71.414062 39.570312 L 42.992188 88.878906 C 34.753906 103.171875 19.703125 109.933594 9.371094 103.976562 C -0.960938 98.023438 -2.65625 81.609375 5.582031 67.316406 Z M 34.007812 18.007812 " clip-rule="nonzero"/></clipPath><clipPath id="7d661c1e4f"><rect x="0" width="77" y="0" height="107"/></clipPath><clipPath id="b70781235f"><path d="M 1308 1200 L 1377 1200 L 1377 1251 L 1308 1251 Z M 1308 1200 " clip-rule="nonzero"/></clipPath><clipPath id="2ba4221c3c"><path d="M 1304.53125 1245.023438 L 1316.011719 1197.183594 L 1381.789062 1212.972656 L 1370.308594 1260.808594 Z M 1304.53125 1245.023438 " clip-rule="nonzero"/></clipPath><clipPath id="23b97befbc"><path d="M 1321.574219 1249.113281 C 1332.742188 1251.792969 1344.417969 1251.535156 1355.457031 1248.359375 L 1368.546875 1244.597656 C 1372.226562 1243.539062 1375.050781 1240.585938 1375.945312 1236.867188 C 1376.835938 1233.144531 1375.660156 1229.230469 1372.863281 1226.621094 L 1362.90625 1217.324219 C 1354.507812 1209.484375 1344.222656 1203.957031 1333.054688 1201.273438 C 1328.535156 1200.191406 1323.769531 1200.945312 1319.804688 1203.375 C 1315.84375 1205.804688 1313.007812 1209.707031 1311.921875 1214.226562 L 1308.621094 1227.980469 C 1307.535156 1232.5 1308.292969 1237.265625 1310.71875 1241.230469 C 1313.148438 1245.191406 1317.054688 1248.027344 1321.574219 1249.113281 Z M 1321.574219 1249.113281 " clip-rule="nonzero"/></clipPath><clipPath id="b3d008abcf"><path d="M 0 0 L 68.878906 0 L 68.878906 51 L 0 51 Z M 0 0 " clip-rule="nonzero"/></clipPath><clipPath id="29628474cc"><path d="M -3.46875 45.023438 L 8.011719 -2.816406 L 73.789062 12.972656 L 62.308594 60.808594 Z M -3.46875 45.023438 " clip-rule="nonzero"/></clipPath><clipPath id="c369ec5a20"><path d="M 13.574219 49.113281 C 24.742188 51.792969 36.417969 51.535156 47.457031 48.359375 L 60.546875 44.597656 C 64.226562 43.539062 67.050781 40.585938 67.945312 36.867188 C 68.835938 33.144531 67.660156 29.230469 64.863281 26.621094 L 54.90625 17.324219 C 46.507812 9.484375 36.222656 3.957031 25.054688 1.273438 C 20.535156 0.191406 15.769531 0.945312 11.804688 3.375 C 7.84375 5.804688 5.007812 9.707031 3.921875 14.226562 L 0.621094 27.980469 C -0.464844 32.5 0.292969 37.265625 2.71875 41.230469 C 5.148438 45.191406 9.054688 48.027344 13.574219 49.113281 Z M 13.574219 49.113281 " clip-rule="nonzero"/></clipPath><clipPath id="0dd93bf2b1"><rect x="0" width="69" y="0" height="51"/></clipPath><clipPath id="4e511e0fe8"><path d="M 430 939 L 489 939 L 489 1007 L 430 1007 Z M 430 939 " clip-rule="nonzero"/></clipPath><clipPath id="8a32a9d99c"><path d="M 447.15625 933.078125 L 496.113281 994.394531 L 472.296875 1013.410156 L 423.335938 952.097656 Z M 447.15625 933.078125 " clip-rule="nonzero"/></clipPath><clipPath id="c865c9cbb4"><path d="M 483.832031 979.011719 C 490.585938 987.46875 490.726562 998.582031 484.152344 1003.832031 C 477.574219 1009.085938 466.765625 1006.488281 460.015625 998.03125 L 435.5625 967.410156 C 428.8125 958.953125 428.667969 947.839844 435.246094 942.585938 C 441.824219 937.335938 452.628906 939.933594 459.382812 948.390625 Z M 483.832031 979.011719 " clip-rule="nonzero"/></clipPath><clipPath id="264d830bf2"><path d="M 0 0 L 59 0 L 59 68 L 0 68 Z M 0 0 " clip-rule="nonzero"/></clipPath><clipPath id="556ff9da2b"><path d="M 17.15625 -5.921875 L 66.113281 55.394531 L 42.296875 74.410156 L -6.664062 13.097656 Z M 17.15625 -5.921875 " clip-rule="nonzero"/></clipPath><clipPath id="01ca11e856"><path d="M 53.832031 40.011719 C 60.585938 48.46875 60.726562 59.582031 54.152344 64.832031 C 47.574219 70.085938 36.765625 67.488281 30.015625 59.03125 L 5.5625 28.410156 C -1.1875 19.953125 -1.332031 8.839844 5.246094 3.585938 C 11.824219 -1.664062 22.628906 0.933594 29.382812 9.390625 Z M 53.832031 40.011719 " clip-rule="nonzero"/></clipPath><clipPath id="5c9b445ee4"><rect x="0" width="59" y="0" height="68"/></clipPath><clipPath id="4590e2048e"><path d="M 586 1051 L 664 1051 L 664 1092 L 586 1092 Z M 586 1051 " clip-rule="nonzero"/></clipPath><clipPath id="45fabee826"><path d="M 591.039062 1047.101562 L 667.101562 1066.359375 L 659.621094 1095.90625 L 583.558594 1076.648438 Z M 591.039062 1047.101562 " clip-rule="nonzero"/></clipPath><clipPath id="efbb73a6a2"><path d="M 648.023438 1061.527344 C 658.511719 1064.183594 665.34375 1072.953125 663.277344 1081.109375 C 661.210938 1089.269531 651.03125 1093.730469 640.539062 1091.074219 L 602.550781 1081.457031 C 592.0625 1078.800781 585.234375 1070.035156 587.296875 1061.875 C 589.363281 1053.714844 599.542969 1049.253906 610.035156 1051.910156 Z M 648.023438 1061.527344 " clip-rule="nonzero"/></clipPath><clipPath id="a84792c1ce"><path d="M 0 0 L 78 0 L 78 41 L 0 41 Z M 0 0 " clip-rule="nonzero"/></clipPath><clipPath id="cb64a3e3a2"><path d="M 5.039062 -3.898438 L 81.101562 15.359375 L 73.621094 44.90625 L -2.441406 25.648438 Z M 5.039062 -3.898438 " clip-rule="nonzero"/></clipPath><clipPath id="b6963e316e"><path d="M 62.023438 10.527344 C 72.511719 13.183594 79.34375 21.953125 77.277344 30.109375 C 75.210938 38.269531 65.03125 42.730469 54.539062 40.074219 L 16.550781 30.457031 C 6.0625 27.800781 -0.765625 19.035156 1.296875 10.875 C 3.363281 2.714844 13.542969 -1.746094 24.035156 0.910156 Z M 62.023438 10.527344 " clip-rule="nonzero"/></clipPath><clipPath id="ab9dbee0cc"><rect x="0" width="78" y="0" height="41"/></clipPath><clipPath id="4a55c70373"><path d="M 541.914062 689.835938 L 646.128906 689.835938 L 646.128906 794.050781 L 541.914062 794.050781 Z M 541.914062 689.835938 " clip-rule="nonzero"/></clipPath><clipPath id="aabf3d28ec"><path d="M 594.023438 689.835938 C 565.246094 689.835938 541.914062 713.164062 541.914062 741.941406 C 541.914062 770.722656 565.246094 794.050781 594.023438 794.050781 C 622.800781 794.050781 646.128906 770.722656 646.128906 741.941406 C 646.128906 713.164062 622.800781 689.835938 594.023438 689.835938 Z M 594.023438 689.835938 " clip-rule="nonzero"/></clipPath><clipPath id="a3051309d3"><path d="M 772.539062 693 L 873.589844 693 L 873.589844 794.050781 L 772.539062 794.050781 Z M 772.539062 693 " clip-rule="nonzero"/></clipPath><clipPath id="f4cd4e1af3"><path d="M 823.066406 693 C 795.160156 693 772.539062 715.621094 772.539062 743.527344 C 772.539062 771.429688 795.160156 794.050781 823.066406 794.050781 C 850.96875 794.050781 873.589844 771.429688 873.589844 743.527344 C 873.589844 715.621094 850.96875 693 823.066406 693 Z M 823.066406 693 " clip-rule="nonzero"/></clipPath></defs><g clip-path="url(#b1f9680e61)"><g clip-path="url(#f401364e27)"><g transform="matrix(1, 0, 0, 1, 199, 223)"><g clip-path="url(#423e38e802)"><g clip-path="url(#bf114c5168)"><g clip-path="url(#daab667d6b)"><path fill="#ffffff" d="M 0.1875 0.566406 L 1033.78125 0.566406 L 1033.78125 1034.160156 L 0.1875 1034.160156 Z M 0.1875 0.566406 " fill-opacity="1" fill-rule="nonzero"/></g></g></g></g></g></g><g clip-path="url(#5823ea26ca)"><g clip-path="url(#d096813ed3)"><path stroke-linecap="butt" transform="matrix(0.75, 0, 0, 0.75, 199.185983, 223.564502)" fill="none" stroke-linejoin="miter" d="M 689.064581 0.00253961 C 308.502049 0.00253961 0.00202214 308.502566 0.00202214 689.065099 C 0.00202214 1069.622423 308.502049 1378.12245 689.064581 1378.12245 C 1069.621906 1378.12245 1378.127141 1069.622423 1378.127141 689.065099 C 1378.127141 308.502566 1069.621906 0.00253961 689.064581 0.00253961 Z M 689.064581 0.00253961 " stroke="#302760" stroke-width="100" stroke-opacity="1" stroke-miterlimit="4"/></g></g><g clip-path="url(#96b7d07823)"><g clip-path="url(#0edd3f9944)"><path stroke-linecap="butt" transform="matrix(0.75, 0, 0, 0.75, 197.0446, 219.169912)" fill="none" stroke-linejoin="miter" d="M 693.414551 -0.00259143 C 310.450976 -0.00259143 -0.0021755 310.45056 -0.0021755 693.414135 C -0.0021755 1076.37771 310.450976 1386.825653 693.414551 1386.825653 C 1076.378126 1386.825653 1386.826069 1076.37771 1386.826069 693.414135 C 1386.826069 310.45056 1076.378126 -0.00259143 693.414551 -0.00259143 Z M 693.414551 -0.00259143 " stroke="#302760" stroke-width="64" stroke-opacity="1" stroke-miterlimit="4"/></g></g><g clip-path="url(#771488d012)"><g clip-path="url(#a4dbe8fe60)"><g clip-path="url(#280cfb1787)"><g transform="matrix(1, 0, 0, 1, 347, 375)"><g clip-path="url(#d8c5554836)"><g clip-path="url(#b721f9209e)"><g clip-path="url(#c335022743)"><g clip-path="url(#3659de824c)"><path fill="#155dfc" d="M -60.9375 75.511719 L 652.792969 -61.367188 L 789.671875 652.363281 L 75.941406 789.242188 Z M -60.9375 75.511719 " fill-opacity="1" fill-rule="nonzero"/></g></g></g></g></g></g></g></g><g clip-path="url(#5650c611e2)"><g clip-path="url(#ae986c06f1)"><g clip-path="url(#48377e7d71)"><g clip-path="url(#ad447c8071)"><path stroke-linecap="butt" transform="matrix(0.736577, -0.141261, 0.141261, 0.736577, 286.061375, 450.511261)" fill="none" stroke-linejoin="miter" d="M 484.490776 -0.00169966 C 216.914646 0.00194508 0.000294674 216.91417 -0.0011757 484.489318 C 0.00148806 752.070563 216.913713 968.984915 484.493977 968.987366 C 752.070106 968.983721 968.984458 752.071496 968.986909 484.491233 C 968.983264 216.915104 752.071039 0.00075169 484.490776 -0.00169966 Z M 484.490776 -0.00169966 " stroke="#302760" stroke-width="100" stroke-opacity="1" stroke-miterlimit="4"/></g></g></g></g><g clip-path="url(#cc51a153ca)"><g clip-path="url(#6285021911)"><g clip-path="url(#56aceb6dfd)"><g transform="matrix(1, 0, 0, 1, 443, 588)"><g clip-path="url(#36e1c21de8)"><g clip-path="url(#f11922ac69)"><g clip-path="url(#fcf6c24e22)"><g clip-path="url(#b040cbfdd4)"><path fill="#ffffff" d="M 24.558594 -16.050781 L 266.230469 19.410156 L 222.042969 320.558594 L -19.632812 285.097656 Z M 24.558594 -16.050781 " fill-opacity="1" fill-rule="nonzero"/></g></g></g></g></g></g></g></g><g clip-path="url(#9f64bea102)"><g clip-path="url(#f454fdb38e)"><g clip-path="url(#49adf1d3c8)"><g clip-path="url(#0ab932cc8e)"><path stroke-linecap="butt" transform="matrix(0.742053, 0.108889, -0.108889, 0.742053, 467.558993, 571.948635)" fill="none" stroke-linejoin="miter" d="M 162.834217 0.000360515 C 72.902092 -0.000162536 0.000575948 90.911875 0.000538159 203.053207 C 0.00125654 315.199693 72.904752 406.10971 162.836877 406.110233 C 252.769002 406.110756 325.670518 315.198718 325.669799 203.052233 C 325.669837 90.910901 252.766342 0.000883566 162.834217 0.000360515 Z M 162.834217 0.000360515 " stroke="#302760" stroke-width="100" stroke-opacity="1" stroke-miterlimit="4"/></g></g></g></g><g clip-path="url(#f5e943c64f)"><g clip-path="url(#5fdafa3672)"><g clip-path="url(#29b617cfcb)"><g transform="matrix(1, 0, 0, 1, 727, 587)"><g clip-path="url(#98d7ed1f3b)"><g clip-path="url(#8796391fc0)"><g clip-path="url(#2eb184e20f)"><g clip-path="url(#bf123c9e25)"><path fill="#ffffff" d="M -23.671875 23.570312 L 216.625 -20.257812 L 271.242188 279.175781 L 30.945312 323.003906 Z M -23.671875 23.570312 " fill-opacity="1" fill-rule="nonzero"/></g></g></g></g></g></g></g></g><g clip-path="url(#b49e96efb2)"><g clip-path="url(#1fa35e662e)"><g clip-path="url(#c1a55758d8)"><g clip-path="url(#b7751c5630)"><path stroke-linecap="butt" transform="matrix(0.737828, -0.134575, 0.134575, 0.737828, 703.329573, 610.570823)" fill="none" stroke-linejoin="miter" d="M 162.833857 -0.00170303 C 72.904769 0.00275472 -0.00205921 90.911939 0.000750498 203.055435 C -0.0015636 315.197996 72.905634 406.109599 162.833788 406.110265 C 252.767065 406.111866 325.669704 315.196623 325.672018 203.054062 C 325.669208 90.910566 252.767134 -0.000102428 162.833857 -0.00170303 Z M 162.833857 -0.00170303 " stroke="#302760" stroke-width="100" stroke-opacity="1" stroke-miterlimit="4"/></g></g></g></g><g clip-path="url(#ae78f45d47)"><g clip-path="url(#7019b94a43)"><g clip-path="url(#b64f33dbfa)"><g transform="matrix(1, 0, 0, 1, 461, 963)"><g clip-path="url(#34fdf10326)"><g clip-path="url(#db2b5955a9)"><g clip-path="url(#ad706100cb)"><g clip-path="url(#218876b980)"><path fill="#6d72e0" d="M 95.976562 223.542969 L -71.664062 130.355469 L 0.625 0.304688 L 168.269531 93.492188 Z M 95.976562 223.542969 " fill-opacity="1" fill-rule="nonzero"/></g></g></g></g></g></g></g></g><g clip-path="url(#2fd7b47305)"><g clip-path="url(#ed646af12a)"><g clip-path="url(#8ddfe36f82)"><g clip-path="url(#b8550d14e0)"><path stroke-linecap="butt" transform="matrix(-0.655532, -0.364387, 0.364387, -0.655532, 556.973313, 1186.540894)" fill="none" stroke-linejoin="miter" d="M 127.819636 0.000265217 L 255.643335 198.373343 L 0.000885537 198.374208 Z M 127.819636 0.000265217 " stroke="#302760" stroke-width="100" stroke-opacity="1" stroke-miterlimit="4"/></g></g></g></g><g clip-path="url(#d61de12922)"><g clip-path="url(#fc83947cff)"><g clip-path="url(#12a63047cf)"><g transform="matrix(1, 0, 0, 1, 1077, 1027)"><g clip-path="url(#4b34279a6f)"><g clip-path="url(#6416f213af)"><g clip-path="url(#9a37ee7ac3)"><g clip-path="url(#039c86c70c)"><path fill="#ffffff" d="M 36.035156 -20.03125 L 190.984375 96.175781 L 135.480469 170.179688 L -19.464844 53.972656 Z M 36.035156 -20.03125 " fill-opacity="1" fill-rule="nonzero"/></g></g></g></g></g></g></g></g><path stroke-linecap="round" transform="matrix(0.728066, 0.180054, -0.180054, 0.728066, 773.374119, 1004.224358)" fill="none" stroke-linejoin="miter" d="M 33.853274 89.58952 C 194.762621 2.399479 366.770452 2.804639 549.886877 90.802499 " stroke="#302760" stroke-width="49" stroke-opacity="1" stroke-miterlimit="4"/><g clip-path="url(#92cb87313a)"><g clip-path="url(#458a151150)"><g clip-path="url(#b4e047bfe2)"><g transform="matrix(1, 0, 0, 1, 1184, 1136)"><g clip-path="url(#fcecf35848)"><g clip-path="url(#0ee6c20ce3)"><g clip-path="url(#9c796997af)"><g clip-path="url(#715b8d0184)"><path fill="#ffffff" d="M 17.042969 -15.324219 L 139.136719 51.382812 L 109.4375 105.742188 L -12.65625 39.035156 Z M 17.042969 -15.324219 " fill-opacity="1" fill-rule="nonzero"/></g></g></g></g></g></g></g></g><path stroke-linecap="round" transform="matrix(0.706223, 0.252486, -0.252486, 0.706223, 1145.912047, 1141.985162)" fill="none" stroke-linejoin="miter" d="M 31.808483 30.945943 C 110.678511 55.825888 189.5445 55.816937 268.41626 30.915583 " stroke="#302760" stroke-width="49" stroke-opacity="1" stroke-miterlimit="4"/><path stroke-linecap="butt" transform="matrix(0.492669, 0.565488, -0.565488, 0.492669, 1146.393919, 967.453313)" fill="none" stroke-linejoin="miter" d="M 6.338327 23.971645 C 137.901348 59.209247 287.165681 59.207305 454.139179 23.972661 " stroke="#302760" stroke-width="49" stroke-opacity="1" stroke-miterlimit="4"/><g clip-path="url(#69bcee9e10)"><g clip-path="url(#e1d6f2861f)"><g clip-path="url(#69ada3eb15)"><g transform="matrix(1, 0, 0, 1, 498, 894)"><g clip-path="url(#0932a314f7)"><g clip-path="url(#5e3e6b24f4)"><g clip-path="url(#78c82ff8cf)"><g clip-path="url(#67f822792f)"><path fill="#155dfc" d="M 86.953125 240.78125 L -80.886719 147.484375 L 0.628906 0.839844 L 168.46875 94.136719 Z M 86.953125 240.78125 " fill-opacity="1" fill-rule="nonzero"/></g></g></g></g></g></g></g></g><g clip-path="url(#a9b29e2ef9)"><g clip-path="url(#7e3383e1da)"><g clip-path="url(#9e8a7be4b6)"><g transform="matrix(1, 0, 0, 1, 1028, 1081)"><g clip-path="url(#2109308897)"><g clip-path="url(#207661f627)"><g clip-path="url(#a88da1a38a)"><g clip-path="url(#baa1e7b6c9)"><path fill="#302760" d="M 10.09375 -7.277344 L 94.441406 38.808594 L 78.148438 68.632812 L -6.203125 22.550781 Z M 10.09375 -7.277344 " fill-opacity="1" fill-rule="nonzero"/></g></g></g></g></g></g></g></g><g clip-path="url(#061faccfc0)"><g clip-path="url(#505f8e36c7)"><g clip-path="url(#704992dac3)"><g transform="matrix(1, 0, 0, 1, 1017, 1018)"><g clip-path="url(#e26279d805)"><g clip-path="url(#64e0f06982)"><g clip-path="url(#cadc9bd601)"><g clip-path="url(#2a6772b961)"><path fill="#ffffff" d="M 16.421875 -15.410156 L 140.824219 46.894531 L 113.085938 102.277344 L -11.316406 39.976562 Z M 16.421875 -15.410156 " fill-opacity="1" fill-rule="nonzero"/></g></g></g></g></g></g></g></g><g clip-path="url(#7ffa918654)"><g clip-path="url(#72ab104ef6)"><g clip-path="url(#2deea947cd)"><g transform="matrix(1, 0, 0, 1, 1072, 971)"><g clip-path="url(#12d886c455)"><g clip-path="url(#f6891495d8)"><g clip-path="url(#025941dbd7)"><g clip-path="url(#00a4bd1fa4)"><path fill="#ffffff" d="M 26.898438 -8.304688 L 88.449219 90.867188 L 51.761719 113.636719 L -9.789062 14.46875 Z M 26.898438 -8.304688 " fill-opacity="1" fill-rule="nonzero"/></g></g></g></g></g></g></g></g><g clip-path="url(#7924062c6d)"><g clip-path="url(#214e0f7bdb)"><g clip-path="url(#e119ba4d3e)"><g transform="matrix(1, 0, 0, 1, 1068, 926)"><g clip-path="url(#7d661c1e4f)"><g clip-path="url(#0b575eaa4d)"><g clip-path="url(#4b1e3e29f1)"><g clip-path="url(#389240d3b9)"><path fill="#ffffff" d="M -9.332031 93.195312 L 48.957031 -7.925781 L 86.363281 13.636719 L 28.074219 114.757812 Z M -9.332031 93.195312 " fill-opacity="1" fill-rule="nonzero"/></g></g></g></g></g></g></g></g><g clip-path="url(#b70781235f)"><g clip-path="url(#2ba4221c3c)"><g clip-path="url(#23b97befbc)"><g transform="matrix(1, 0, 0, 1, 1308, 1200)"><g clip-path="url(#0dd93bf2b1)"><g clip-path="url(#b3d008abcf)"><g clip-path="url(#29628474cc)"><g clip-path="url(#c369ec5a20)"><path fill="#302760" d="M -3.46875 45.023438 L 8.011719 -2.816406 L 84.253906 15.484375 L 72.773438 63.320312 Z M -3.46875 45.023438 " fill-opacity="1" fill-rule="nonzero"/></g></g></g></g></g></g></g></g><path stroke-linecap="butt" transform="matrix(0.288986, 0.692089, -0.692089, 0.288986, 442.336171, 921.686445)" fill="none" stroke-linejoin="miter" d="M 3.054877 28.034802 C 78.014615 3.988174 138.920888 3.987406 185.788114 28.03852 " stroke="#302760" stroke-width="20" stroke-opacity="1" stroke-miterlimit="4"/><path stroke-linecap="butt" transform="matrix(0.729156, -0.175588, 0.175588, 0.729156, 502.777142, 1087.279446)" fill="none" stroke-linejoin="miter" d="M 3.337229 31.192266 C 83.16111 2.933635 143.836478 2.935749 185.353205 31.196168 " stroke="#302760" stroke-width="20" stroke-opacity="1" stroke-miterlimit="4"/><g clip-path="url(#4e511e0fe8)"><g clip-path="url(#8a32a9d99c)"><g clip-path="url(#c865c9cbb4)"><g transform="matrix(1, 0, 0, 1, 430, 939)"><g clip-path="url(#5c9b445ee4)"><g clip-path="url(#264d830bf2)"><g clip-path="url(#556ff9da2b)"><g clip-path="url(#01ca11e856)"><path fill="#302760" d="M 17.15625 -5.921875 L 66.039062 55.300781 L 42.222656 74.320312 L -6.664062 13.097656 Z M 17.15625 -5.921875 " fill-opacity="1" fill-rule="nonzero"/></g></g></g></g></g></g></g></g><g clip-path="url(#4590e2048e)"><g clip-path="url(#45fabee826)"><g clip-path="url(#efbb73a6a2)"><g transform="matrix(1, 0, 0, 1, 586, 1051)"><g clip-path="url(#ab9dbee0cc)"><g clip-path="url(#a84792c1ce)"><g clip-path="url(#cb64a3e3a2)"><g clip-path="url(#b6963e316e)"><path fill="#302760" d="M 5.039062 -3.898438 L 80.988281 15.328125 L 73.503906 44.878906 L -2.441406 25.648438 Z M 5.039062 -3.898438 " fill-opacity="1" fill-rule="nonzero"/></g></g></g></g></g></g></g></g><g clip-path="url(#4a55c70373)"><g clip-path="url(#aabf3d28ec)"><path stroke-linecap="butt" transform="matrix(0.75, 0, 0, 0.75, 541.915883, 689.835329)" fill="none" stroke-linejoin="miter" d="M 69.476746 0.00081189 C 31.106951 0.00081189 -0.0024269 31.104981 -0.0024269 69.474776 C -0.0024269 107.84978 31.106951 138.953949 69.476746 138.953949 C 107.846541 138.953949 138.95071 107.84978 138.95071 69.474776 C 138.95071 31.104981 107.846541 0.00081189 69.476746 0.00081189 Z M 69.476746 0.00081189 " stroke="#302760" stroke-width="140" stroke-opacity="1" stroke-miterlimit="4"/></g></g><g clip-path="url(#a3051309d3)"><g clip-path="url(#f4cd4e1af3)"><path stroke-linecap="butt" transform="matrix(0.75, 0, 0, 0.75, 772.539159, 693.001504)" fill="none" stroke-linejoin="miter" d="M 67.369669 -0.00200575 C 30.161333 -0.00200575 -0.000128412 30.159455 -0.000128412 67.367792 C -0.000128412 104.57092 30.161333 134.732381 67.369669 134.732381 C 104.572797 134.732381 134.734258 104.57092 134.734258 67.367792 C 134.734258 30.159455 104.572797 -0.00200575 67.369669 -0.00200575 Z M 67.369669 -0.00200575 " stroke="#302760" stroke-width="134" stroke-opacity="1" stroke-miterlimit="4"/></g></g><path stroke-linecap="round" transform="matrix(0.682743, 0.310423, -0.310423, 0.682743, 651.997297, 874.774297)" fill="none" stroke-linejoin="miter" d="M 28.154097 26.893051 C 75.556229 61.662271 122.965981 61.641865 170.369559 26.826663 " stroke="#302760" stroke-width="39" stroke-opacity="1" stroke-miterlimit="4"/></svg>